STARTFONT 2.1
FONT -Dusklight-Rodan-Medium-R-Normal--36-240-75-75-C-0-ISO8859-1
SIZE 24 75 75
FONTBOUNDINGBOX 16 36 0 -6
STARTPROPERTIES 9
FONT_ASCENT 18
FONT_DESCENT 6
DEFAULT_CHAR 32
PIXEL_SIZE 36
POINT_SIZE 240
RESOLUTION_X 75
RESOLUTION_Y 75
FAMILY_NAME "Rodan"
WEIGHT_NAME "Medium"
ENDPROPERTIES
CHARS 224
STARTCHAR U+0020
ENCODING 32
SWIDTH 426 0
DWIDTH 16 0
BBX 16 36 8 -6
BITMAP
0000
0000
0000
0000
0000
0000
0000
0000
0000
0000
0000
0000
0000
0000
0000
0000
39E3
3DE7
3DEF
1FCE
0F9C
0639
007B
0077
0000
0000
0000
0044
00EE
00FE
007C
03FF
0000
0000
0000
0000
ENDCHAR
STARTCHAR U+0021
ENCODING 33
SWIDTH 400 0
DWIDTH 15 0
BBX 16 36 9 -6
BITMAP
0000
0000
0000
0000
0000
0000
0000
0000
0000
0000
0000
0000
0000
0000
0000
0000
8007
0007
0003
0003
F003
F807
FC0F
9C0E
0000
0000
0000
0000
0000
0000
0000
8000
0007
0000
0000
0000
ENDCHAR
STARTCHAR U+0022
ENCODING 34
SWIDTH 426 0
DWIDTH 16 0
BBX 16 36 4 -6
BITMAP
0000
0000
0000
0000
7C00
7C00
7800
7800
3800
0000
7C00
7C00
7C00
3800
0000
0000
9E00
9E00
FC00
F800
F180
F1C0
F9C0
7FC0
0000
0000
0000
0000
0000
0000
0000
0000
FFC0
3800
3800
3800
ENDCHAR
STARTCHAR U+0023
ENCODING 35
SWIDTH 586 0
DWIDTH 22 0
BBX 16 36 15 -6
BITMAP
0000
0000
0000
0000
01EF
01EF
00EF
00EE
0000
0000
0000
0000
0000
0000
0000
0000
003C
003C
003C
0000
0000
0000
0000
0000
0000
0000
0000
0000
0000
0000
0000
0000
0000
003C
003C
003C
ENDCHAR
STARTCHAR U+0024
ENCODING 36
SWIDTH 426 0
DWIDTH 16 0
BBX 16 36 3 -6
BITMAP
0000
0000
0000
0000
0000
0000
0000
0000
000F
0003
0003
0003
0003
0003
0000
0000
0000
0000
0000
0000
0000
0000
0000
0000
0000
0000
0000
0000
0000
0000
0000
0000
0001
0000
0000
0000
ENDCHAR
STARTCHAR U+0025
ENCODING 37
SWIDTH 400 0
DWIDTH 15 0
BBX 16 36 8 -6
BITMAP
0000
0000
0000
0000
7380
7380
7380
7380
FFC0
DE00
9C00
9C00
9C00
1800
0000
0000
7800
7000
F000
F000
F000
F000
F000
F000
0000
0000
0000
0000
0000
0000
0000
0000
FF00
0000
0000
0000
ENDCHAR
STARTCHAR U+0026
ENCODING 38
SWIDTH 426 0
DWIDTH 16 0
BBX 16 36 7 -6
BITMAP
0000
0000
0000
0000
1FFF
1FFF
001C
031C
3CDF
1C5D
001C
001C
3FFF
3FFF
3FFF
0000
003C
001C
001E
001E
001E
001E
001E
001E
0000
0000
0000
0000
0000
0000
0000
0000
0000
0038
003C
003C
ENDCHAR
STARTCHAR U+0027
ENCODING 39
SWIDTH 400 0
DWIDTH 15 0
BBX 16 36 11 -6
BITMAP
0000
0000
0000
0000
FC00
FC00
0000
6000
3C00
1C00
0000
0000
FC00
FC00
FC00
0000
0000
0000
0000
0000
0000
0000
0000
0000
0000
0000
0000
0000
0000
0000
0000
0000
0000
0000
0000
0000
ENDCHAR
STARTCHAR U+0028
ENCODING 40
SWIDTH 426 0
DWIDTH 16 0
BBX 16 36 8 -6
BITMAP
0000
0000
0000
0000
0000
0000
0000
0000
0000
0000
0000
0000
0F80
1FC0
3FC1
3DE3
00E7
01E7
01C7
0387
0703
0701
0000
0000
03FF
03FF
007C
00FE
00EE
0044
0000
0000
0000
0000
0000
0007
ENDCHAR
STARTCHAR U+0029
ENCODING 41
SWIDTH 426 0
DWIDTH 16 0
BBX 16 36 11 -6
BITMAP
0000
0000
0000
0000
0000
0000
0000
0000
0000
0000
0000
0000
F001
E003
C007
C007
1C0E
1C0E
9C0F
FC0F
F807
F003
0000
0000
8000
8000
0000
0000
0000
0007
0007
0007
0000
0000
0000
0000
ENDCHAR
STARTCHAR U+002A
ENCODING 42
SWIDTH 426 0
DWIDTH 16 0
BBX 16 36 7 -6
BITMAP
3800
3800
3800
3800
3800
3800
3800
3800
0000
0000
0000
0000
F800
FC00
FE00
9E00
3FC0
1F80
0FC0
FFF0
FFF0
F860
0000
0000
0000
3800
3800
3800
3800
FFC0
FFC0
FFC0
0000
0000
0000
7C00
ENDCHAR
STARTCHAR U+002B
ENCODING 43
SWIDTH 426 0
DWIDTH 16 0
BBX 16 36 15 -6
BITMAP
00EE
00EE
00EE
0000
0000
0000
0000
0000
0000
0000
0000
0000
003C
003C
003C
003C
0000
0000
0000
0000
0000
0000
0000
0000
0000
0000
0000
0000
0000
0000
0000
0000
0000
0000
0000
0000
ENDCHAR
STARTCHAR U+002C
ENCODING 44
SWIDTH 426 0
DWIDTH 16 0
BBX 16 36 4 -6
BITMAP
0007
0007
0007
0000
0001
0001
000F
000F
0000
0000
0000
0000
0000
0000
0000
0000
0000
0000
0000
0000
0000
0000
0000
0000
0000
0000
0000
0000
0000
0001
0001
0001
0000
0000
0000
0000
ENDCHAR
STARTCHAR U+002D
ENCODING 45
SWIDTH 426 0
DWIDTH 16 0
BBX 16 36 15 -6
BITMAP
FFE0
FFE0
FFE0
E700
EF00
CE00
FFC0
FFC0
0000
0000
0400
0E00
1E00
1C00
3C00
7800
F000
7000
7800
7800
3C00
1E00
1E00
0000
0000
0000
0000
0000
0000
FE00
FF00
FF00
0000
0000
0000
3E00
ENDCHAR
STARTCHAR U+002E
ENCODING 46
SWIDTH 426 0
DWIDTH 16 0
BBX 16 36 4 -6
BITMAP
039C
039C
071C
071D
0F9D
0FDF
1FFF
3FFF
0000
0000
0040
00E0
00F0
0070
0078
003C
001E
001C
003C
003C
0078
00F0
00F0
0000
0000
0000
0000
0000
0000
0000
0000
0000
0000
0000
0000
007C
ENDCHAR
STARTCHAR U+002F
ENCODING 47
SWIDTH 426 0
DWIDTH 16 0
BBX 16 36 15 -6
BITMAP
E000
E000
E000
E000
E000
F000
F800
BC00
0000
0000
0000
0000
0000
0000
0000
0000
0000
0000
0000
0000
0000
0000
0000
0000
0000
0000
0000
0000
0000
0000
0000
0000
0000
0000
0000
0000
ENDCHAR
STARTCHAR U+0030
ENCODING 48
SWIDTH 426 0
DWIDTH 16 0
BBX 16 36 4 -6
BITMAP
0000
0000
0000
0000
001E
001C
003C
003C
0038
0078
0070
0070
0000
0000
0000
0000
000F
001F
001F
003F
0FFF
0FFF
0007
0007
0007
0007
0000
0000
0000
0000
0000
007C
01FE
03FF
07FF
0787
ENDCHAR
STARTCHAR U+0031
ENCODING 49
SWIDTH 426 0
DWIDTH 16 0
BBX 16 36 15 -6
BITMAP
0000
0000
0000
0000
0007
0007
0007
0007
0007
0007
0007
0007
0000
0000
0000
0000
0003
0003
0003
0003
E000
E007
0007
0003
0003
0000
0000
0000
0000
0000
0000
0000
0000
0000
8000
C000
ENDCHAR
STARTCHAR U+0032
ENCODING 50
SWIDTH 426 0
DWIDTH 16 0
BBX 16 36 7 -6
BITMAP
3800
3800
0000
0000
83C0
83C0
83C0
83C0
83C0
83C0
83C0
83C0
0000
0000
0000
0000
FF80
FF80
FF80
8000
03C0
83C0
C7C0
FF80
FF00
FE00
0000
0000
0000
0000
0000
0000
0000
0000
0000
0000
ENDCHAR
STARTCHAR U+0033
ENCODING 51
SWIDTH 426 0
DWIDTH 16 0
BBX 16 36 15 -6
BITMAP
003C
001C
0018
0000
01FE
00DE
001E
001E
001E
001E
001E
001E
0000
0000
0000
007E
00FF
01FF
03FF
07C3
0783
0783
03C3
03FF
01FF
00FE
0000
0000
0000
0000
0000
0000
0000
0000
0000
0000
ENDCHAR
STARTCHAR U+0034
ENCODING 52
SWIDTH 426 0
DWIDTH 16 0
BBX 16 36 4 -6
BITMAP
0000
0000
0000
0000
0003
0001
0000
0000
0000
0000
0000
0001
0000
0000
0000
0000
0007
8007
C007
8000
C000
C000
C000
8000
8000
0000
0000
0000
0000
0000
0000
0000
0000
0000
0000
0000
ENDCHAR
STARTCHAR U+0035
ENCODING 53
SWIDTH 533 0
DWIDTH 20 0
BBX 16 36 15 -6
BITMAP
0000
0000
0000
0000
C3C0
C3C0
03C0
0FC0
1F80
7F00
FC00
F000
0000
0000
0000
0000
FFE0
FFE0
FFC0
0780
7800
7800
F800
F000
F000
F000
0000
0000
0000
0000
0000
0000
0000
0000
0000
0000
ENDCHAR
STARTCHAR U+0036
ENCODING 54
SWIDTH 426 0
DWIDTH 16 0
BBX 16 36 4 -6
BITMAP
003C
0038
0000
0000
0107
0007
001F
00FF
00FF
00FF
0007
0003
0000
0000
0000
007E
01FF
03FF
03C7
0783
0781
0781
07C3
03FF
03FF
00FF
0000
0000
0000
0000
0000
0000
0000
0000
0000
0000
ENDCHAR
STARTCHAR U+0037
ENCODING 55
SWIDTH 426 0
DWIDTH 16 0
BBX 16 36 15 -6
BITMAP
0000
0000
0000
0000
8000
8000
8000
0000
0000
8000
8000
C000
0000
0000
0000
0000
0000
8000
C000
C000
E000
E000
E000
C000
8000
0000
0000
0000
0000
0000
0000
0000
0000
0000
0000
0000
ENDCHAR
STARTCHAR U+0038
ENCODING 56
SWIDTH 426 0
DWIDTH 16 0
BBX 16 36 3 -6
BITMAP
0007
000F
000E
000E
00F0
00E0
00E0
01E0
01C0
01C0
0000
0000
007F
00F7
00F7
01E7
03C7
03C7
0787
0FFF
0000
0000
0000
0000
0000
0000
0000
0000
0783
0783
0783
0783
07FF
03FF
01FF
007B
ENDCHAR
STARTCHAR U+0039
ENCODING 57
SWIDTH 426 0
DWIDTH 16 0
BBX 16 36 15 -6
BITMAP
0000
0001
0003
0007
0007
0007
0003
0003
0001
0000
0000
0000
0007
0007
0007
0007
0007
0007
0001
E000
0000
0000
0000
0000
0000
0000
0000
0000
C000
C000
C000
C000
C000
C000
C000
C000
ENDCHAR
STARTCHAR U+003A
ENCODING 58
SWIDTH 426 0
DWIDTH 16 0
BBX 16 36 3 -6
BITMAP
FE00
FF00
FF80
C7C0
83C0
83C0
C780
FF80
FF00
FE00
0000
0000
8000
8000
FF00
FF80
FFC0
C3C0
83C0
03C0
0000
0000
0000
0000
0000
0000
0000
0000
0000
3C00
3C00
3C00
3800
0000
0000
0000
ENDCHAR
STARTCHAR U+003B
ENCODING 59
SWIDTH 426 0
DWIDTH 16 0
BBX 16 36 15 -6
BITMAP
001E
003E
00FE
01FE
001E
001E
001E
001E
001E
001E
0000
0000
0781
0780
07FE
07FF
07FF
07C3
0783
0783
0000
0000
0000
0000
0000
0000
0000
0000
003C
003C
003C
0038
0000
0000
0000
0000
ENDCHAR
STARTCHAR U+003C
ENCODING 60
SWIDTH 426 0
DWIDTH 16 0
BBX 16 36 6 -6
BITMAP
0000
0001
0003
0003
0001
0003
0003
0003
0003
0003
0000
0000
0000
0000
0000
8000
C000
C000
C000
C000
0000
0000
0000
0000
0000
0000
0000
0000
0000
0000
0000
0000
0000
0003
0007
0007
ENDCHAR
STARTCHAR U+003D
ENCODING 61
SWIDTH 426 0
DWIDTH 16 0
BBX 16 36 15 -6
BITMAP
FF00
FF80
FFC0
C3C0
E000
C000
FFC0
FFC0
FFC0
FFC0
0000
0000
0F80
0F00
1E00
1E00
3C00
3C00
7C00
7800
0000
0000
0000
0000
0000
0000
0000
0000
0180
0380
0F80
3F00
FE00
F800
E000
C000
ENDCHAR
STARTCHAR U+003E
ENCODING 62
SWIDTH 426 0
DWIDTH 16 0
BBX 16 36 1 -6
BITMAP
01FF
03FF
07FF
0787
0103
0703
0787
07FF
03FF
01FE
0000
0000
0783
03C3
03FF
01FF
03FF
07FF
0783
0781
0000
0000
0000
0000
0000
0000
0000
0000
0000
0000
0000
07FF
07FF
07FF
0000
0000
ENDCHAR
STARTCHAR U+003F
ENCODING 63
SWIDTH 480 0
DWIDTH 18 0
BBX 16 36 15 -6
BITMAP
0000
8000
8000
8000
C000
C000
C000
8000
0000
0000
0000
0000
C000
C000
8000
8000
8000
C000
E000
E000
0000
0000
0000
0000
0000
0000
0000
0000
0000
0000
0000
C000
C000
C000
0000
0000
ENDCHAR
STARTCHAR U+0040
ENCODING 64
SWIDTH 426 0
DWIDTH 16 0
BBX 16 36 4 -6
BITMAP
0003
0303
0787
07FF
03FF
01FE
0000
0000
0300
03C0
03F0
01FC
00FF
003F
000F
0007
0000
0000
0000
003F
00FF
01FF
03FF
03E0
07C0
03C0
03F1
01FF
00FF
007F
0000
0000
0781
0781
0781
07FF
ENDCHAR
STARTCHAR U+0041
ENCODING 65
SWIDTH 426 0
DWIDTH 16 0
BBX 16 36 15 -6
BITMAP
C000
C000
8000
8000
0000
0000
0000
0000
0007
0000
0000
0000
0000
8000
C000
C000
0000
0000
0000
0000
C007
E007
F007
E007
4007
E007
F007
E007
C007
8007
0000
0000
E000
E000
E000
E000
ENDCHAR
STARTCHAR U+0042
ENCODING 66
SWIDTH 426 0
DWIDTH 16 0
BBX 16 36 4 -6
BITMAP
0000
0000
3C00
3C00
3C00
3800
0000
0000
83C0
03C0
0780
1F80
3F00
3C00
3800
7800
0000
0000
0000
0000
FE00
FF80
FFC0
87E0
81E0
83E0
FFC0
FF80
FF00
FC00
0000
0000
3C00
3C00
3C00
3C00
ENDCHAR
STARTCHAR U+0043
ENCODING 67
SWIDTH 480 0
DWIDTH 18 0
BBX 16 36 14 -6
BITMAP
0000
003C
003C
003C
003C
001C
0038
0000
1DF7
3FFF
3FFF
1FFF
0FFF
3FFF
3FFF
3FFF
0000
0000
0000
0000
03FF
03FF
03FF
03C0
03C0
03C0
03FF
03FF
03FF
03FF
0000
0000
001E
001E
001E
001E
ENDCHAR
STARTCHAR U+0044
ENCODING 68
SWIDTH 426 0
DWIDTH 16 0
BBX 16 36 4 -6
BITMAP
0007
0003
0000
0000
0000
0000
0000
0000
DC00
FC00
FC01
FC01
F801
FE03
FE03
FC03
0000
0000
0000
0000
C001
C001
C001
0001
0001
0001
C001
E001
E001
C001
0000
0000
0003
0003
0003
0003
ENDCHAR
STARTCHAR U+0045
ENCODING 69
SWIDTH 426 0
DWIDTH 16 0
BBX 16 36 15 -6
BITMAP
F000
FC00
FF00
3F80
0F80
0380
0000
0000
FF00
FF00
F780
E780
E780
C3C0
FFC0
FFC0
0000
0000
0000
0000
FFE0
FFE0
FFE0
E000
E000
E000
E000
E000
E000
C000
0000
0000
DF00
FE00
FC00
FC00
ENDCHAR
STARTCHAR U+0046
ENCODING 70
SWIDTH 426 0
DWIDTH 16 0
BBX 16 36 5 -6
BITMAP
07FF
07FF
07FF
0000
0000
0000
0000
0000
03C3
03C3
03C7
03FF
03FF
03FF
03C1
03C1
0000
0000
0000
007E
01FF
03FF
07FF
07C1
0F80
0780
07E1
03FF
01FF
00FF
0000
0000
01E0
01E0
01E0
01E0
ENDCHAR
STARTCHAR U+0047
ENCODING 71
SWIDTH 426 0
DWIDTH 16 0
BBX 16 36 15 -6
BITMAP
C000
C000
C000
0000
0000
0000
0000
0000
C000
C000
C000
8000
8000
C000
E000
E000
0000
0000
0000
0000
8000
C000
E000
C000
E000
E000
E000
E000
C000
8000
0000
0000
0000
0000
0000
0000
ENDCHAR
STARTCHAR U+0048
ENCODING 72
SWIDTH 426 0
DWIDTH 16 0
BBX 16 36 2 -6
BITMAP
0000
0000
0000
0000
0000
0000
0000
0000
000F
003F
00FE
03F8
03E0
0380
0000
0000
07C0
0780
0780
0780
0780
0780
0780
0780
0000
0000
0000
0000
0781
0781
0781
0781
0781
0781
0781
0781
ENDCHAR
STARTCHAR U+0049
ENCODING 73
SWIDTH 400 0
DWIDTH 15 0
BBX 16 36 9 -6
BITMAP
0000
0000
0000
0000
0001
0003
0003
0007
C000
8000
0000
0000
0000
0000
0000
0000
4007
0007
0007
0007
0007
0007
0007
0007
0000
0000
0000
0000
E000
E000
E000
E000
E000
E000
E000
E000
ENDCHAR
STARTCHAR U+004A
ENCODING 74
SWIDTH 426 0
DWIDTH 16 0
BBX 16 36 6 -6
BITMAP
0000
0000
0000
7C00
FF00
FF80
FFC0
83C0
7800
0000
7800
7800
7800
3800
0000
0000
83E0
81E0
81F0
80F0
80F0
80F0
80F0
81F0
0000
0000
0000
0000
3C00
3C00
3C00
3C00
3C00
3C00
3C00
3C00
ENDCHAR
STARTCHAR U+004B
ENCODING 75
SWIDTH 373 0
DWIDTH 14 0
BBX 16 36 9 -6
BITMAP
0000
0000
0000
0338
07BD
0FFF
1FFF
1CFF
1FFF
07FF
0FFF
0FFF
0FFF
0FFF
0FFF
0000
03C0
03C0
03C0
03FF
03FF
03FF
03C0
03C0
0000
0000
0000
0000
001E
001E
001E
001E
001E
001E
023E
03FE
ENDCHAR
STARTCHAR U+004C
ENCODING 76
SWIDTH 426 0
DWIDTH 16 0
BBX 16 36 4 -6
BITMAP
0000
0000
0000
6000
F000
F800
FC00
BC00
F407
F007
F007
F00F
F00F
F00E
F000
0000
0001
0001
0001
8001
8001
8001
0001
0001
0000
0000
0000
0000
0003
0003
0003
0003
0003
0003
0003
0003
ENDCHAR
STARTCHAR U+004D
ENCODING 77
SWIDTH 426 0
DWIDTH 16 0
BBX 16 36 13 -6
BITMAP
0000
0000
0000
0000
3C00
7E00
7E00
7F00
FFE0
81E0
81F0
00F0
00F0
0070
0000
0000
E000
E000
E000
FF80
FFC0
FFC0
FF80
E000
0000
0000
0000
0000
C1E0
C3C0
C7C0
CF80
CF80
C7C0
C3C0
C3E0
ENDCHAR
STARTCHAR U+004E
ENCODING 78
SWIDTH 426 0
DWIDTH 16 0
BBX 16 36 5 -6
BITMAP
0000
0000
0000
0000
03FF
03FF
03FF
03C3
03C1
03C1
03FF
03FF
03FF
03FF
0000
0000
0F80
0F00
0F00
0F0F
0F1F
0F1F
0F0F
0F00
0000
0000
0000
0000
01E0
01E0
01E0
01E0
01E0
01E0
01FF
01FF
ENDCHAR
STARTCHAR U+004F
ENCODING 79
SWIDTH 373 0
DWIDTH 14 0
BBX 16 36 8 -6
BITMAP
0000
0000
0000
0000
0000
8000
C000
C000
E000
E000
E000
C000
8000
0000
0000
0000
8000
0000
0000
E000
E000
E000
E000
E000
0000
0000
0000
0000
0000
0000
0000
0000
0000
0000
C000
E000
ENDCHAR
STARTCHAR U+0050
ENCODING 80
SWIDTH 426 0
DWIDTH 16 0
BBX 16 36 4 -6
BITMAP
07FF
07FF
0781
0781
0000
0000
0000
0000
1F03
1F03
1F83
1F87
1CFE
1CFC
1CFC
1C7C
1C7C
1C78
0000
0000
0000
0000
0000
0000
03FF
03FF
03FF
03C3
03C7
03C7
03C3
03C3
03C1
0380
0000
0000
ENDCHAR
STARTCHAR U+0051
ENCODING 81
SWIDTH 400 0
DWIDTH 15 0
BBX 16 36 7 -6
BITMAP
E000
E000
E000
E000
0000
0000
0000
0000
F007
F007
F007
F007
F007
F007
F007
F007
F007
F007
0000
0000
0000
0000
0000
0000
0000
8001
C003
E003
8003
C007
C007
E003
E001
F000
0000
0000
ENDCHAR
STARTCHAR U+0052
ENCODING 82
SWIDTH 426 0
DWIDTH 16 0
BBX 16 36 5 -6
BITMAP
3C00
3C00
3C00
3C00
0000
0000
0000
0000
81E0
C1E0
C1E0
E1E0
9FE0
8FE0
8FE0
87E0
83E0
03E0
0000
0000
0000
0000
0000
7C00
FF00
FF80
FFC0
C380
03C0
83C0
C7C0
FFC0
FF80
FF00
0000
0000
ENDCHAR
STARTCHAR U+0053
ENCODING 83
SWIDTH 533 0
DWIDTH 20 0
BBX 16 36 7 -6
BITMAP
001E
001E
001E
001E
0000
0000
0000
007E
01FF
03FF
07FF
07C3
0F81
0781
07E7
03FF
01FF
00FF
0000
0000
0000
0000
0000
0000
07FF
07FF
07FF
003C
003C
003C
003C
003C
003C
003C
0000
0000
ENDCHAR
STARTCHAR U+0054
ENCODING 84
SWIDTH 426 0
DWIDTH 16 0
BBX 16 36 4 -6
BITMAP
0003
0003
0003
0003
0000
0000
0000
0000
8003
C003
E003
E003
F003
E003
E003
C003
8003
0003
0000
0000
0000
0000
0000
0000
E007
E007
E007
0007
0007
0007
0007
0003
0001
0000
0000
0000
ENDCHAR
STARTCHAR U+0055
ENCODING 85
SWIDTH 426 0
DWIDTH 16 0
BBX 16 36 15 -6
BITMAP
FC00
FE00
DF00
CF00
0000
0000
0000
0000
FF00
FF80
FFC0
C3E0
C000
C000
C000
C000
C000
8000
0000
0000
0000
0000
0000
0000
81E0
81E0
81E0
81E0
81E0
83E0
C7C0
FFC0
FF80
FF00
0000
0000
ENDCHAR
STARTCHAR U+0056
ENCODING 86
SWIDTH 426 0
DWIDTH 16 0
BBX 16 36 4 -6
BITMAP
01E0
01E0
01E0
01E0
0000
0000
0000
007E
01FF
03FF
07FF
0781
0F00
0F81
07C3
03FF
01FF
00FF
0003
0000
0000
0000
0000
0000
0F01
0F81
0781
0781
00FF
00FF
00FE
007E
007E
003C
0000
0000
ENDCHAR
STARTCHAR U+0057
ENCODING 87
SWIDTH 400 0
DWIDTH 15 0
BBX 16 36 10 -6
BITMAP
0000
0000
0000
0000
0000
0000
0000
0000
8000
C000
E000
E000
F000
E000
E000
C000
8000
C000
E000
0000
0000
0000
0000
0000
F000
E000
E000
E000
0000
0000
0000
0000
0000
0000
0000
0000
ENDCHAR
STARTCHAR U+0058
ENCODING 88
SWIDTH 426 0
DWIDTH 16 0
BBX 16 36 7 -6
BITMAP
0781
0701
0000
0000
1F87
1F87
1FC7
1FCF
1DCF
1DEE
1DFE
1DFE
0000
0000
0000
0000
0000
0000
0000
0000
03C1
03C1
03C3
03FF
03FF
03FF
03FF
03CF
0000
0000
0000
0000
383C
787C
3C7C
3C7E
ENDCHAR
STARTCHAR U+0059
ENCODING 89
SWIDTH 426 0
DWIDTH 16 0
BBX 16 36 15 -6
BITMAP
E000
E000
0000
0000
F007
F007
F007
F007
F007
F007
F007
F007
0000
0000
0000
0000
0000
0000
0000
0000
E003
E003
E003
C001
C000
8000
0000
8000
0000
0000
0000
0000
3C0F
3C07
3C03
3803
ENDCHAR
STARTCHAR U+005A
ENCODING 90
SWIDTH 426 0
DWIDTH 16 0
BBX 16 36 3 -6
BITMAP
3C00
3800
0000
0000
E1E0
F1E0
F9E0
79E0
7DE0
BDE0
BFE0
9FE0
0000
0000
0000
0000
0000
0000
0000
0000
C100
C000
F800
FE00
FF00
7F80
0FC0
03C0
0000
0000
0000
0000
83C0
87C0
C780
CF80
ENDCHAR
STARTCHAR U+005B
ENCODING 91
SWIDTH 426 0
DWIDTH 16 0
BBX 16 36 12 -6
BITMAP
03FC
03F8
0000
0000
0F81
0F00
0F00
0F00
0F00
0F00
0F00
0F00
0000
0000
0000
0000
0000
0000
0000
0000
003C
003C
003C
003C
003C
003C
003C
003C
0000
0000
0000
0000
0780
07C1
03C1
03E3
ENDCHAR
STARTCHAR U+005C
ENCODING 92
SWIDTH 426 0
DWIDTH 16 0
BBX 16 36 6 -6
BITMAP
0003
0003
0000
0000
F003
F003
F003
F003
F003
F003
F003
F003
0000
0000
0000
0000
0000
0000
0000
0000
0007
0007
0007
0007
0007
0007
0007
0007
0000
0000
0000
0000
F007
E007
E007
C000
ENDCHAR
STARTCHAR U+005D
ENCODING 93
SWIDTH 426 0
DWIDTH 16 0
BBX 16 36 9 -6
BITMAP
C1F0
80F0
0000
0000
C1E0
C1E0
C1E0
C3E0
C7C0
FFC0
FF80
FF00
0000
0000
0000
0000
0000
0000
0000
0000
81E0
81E0
81E0
81E0
81E0
81E0
81E0
81E0
0000
0000
0000
0000
FFC0
FFC0
FFC0
07C0
ENDCHAR
STARTCHAR U+005E
ENCODING 94
SWIDTH 426 0
DWIDTH 16 0
BBX 16 36 7 -6
BITMAP
01FF
01FF
0000
0000
0F81
0F00
0F00
0F00
0F00
0F00
0F00
0F00
0000
0000
0000
0000
0000
0000
0000
0000
07C3
03C3
03C3
03E7
03E7
01E7
01EF
01FF
0000
0000
0000
007F
007F
007F
0078
0078
ENDCHAR
STARTCHAR U+005F
ENCODING 95
SWIDTH 426 0
DWIDTH 16 0
BBX 16 36 11 -6
BITMAP
E000
C000
0000
0000
F000
F000
F000
F000
F000
F000
F000
F000
0000
0000
0000
0000
0000
0000
0000
0000
E000
C000
C000
C000
8000
8000
8000
0000
0000
0000
0000
0000
0000
0000
0000
0000
ENDCHAR
STARTCHAR U+0060
ENCODING 96
SWIDTH 426 0
DWIDTH 16 0
BBX 16 36 2 -6
BITMAP
3C7E
3CFE
3EFE
1EFE
1EEF
1EEF
1FEF
0FE7
0000
0000
0000
0007
3F7F
3F7F
3F70
3B7F
3BFF
3FFF
3FFF
3F1F
38FC
00F8
00F0
0000
0000
00FE
03FF
03FF
0187
011F
00FF
01FF
0000
0000
0000
000E
ENDCHAR
STARTCHAR U+0061
ENCODING 97
SWIDTH 533 0
DWIDTH 20 0
BBX 16 36 8 -6
BITMAP
7801
7801
7800
7800
7000
F000
F000
F001
0000
0000
0000
0001
F801
F800
3800
F800
FC00
FC00
F800
E000
FC00
7C00
3801
0000
0007
0007
0007
8007
8007
8007
8007
8007
0000
0000
0000
0000
ENDCHAR
STARTCHAR U+0062
ENCODING 98
SWIDTH 426 0
DWIDTH 16 0
BBX 16 36 8 -6
BITMAP
EF00
FE00
FE00
FC00
7C00
7C00
FE00
FE00
0000
0000
0000
FC00
FC00
FC00
1C00
1C00
1C00
1C00
1C00
1C00
1C00
FC00
FC00
0000
8000
FE00
FF00
FF80
C7C0
83C0
83C0
83C0
0000
0000
0000
0000
ENDCHAR
STARTCHAR U+0063
ENCODING 99
SWIDTH 533 0
DWIDTH 20 0
BBX 16 36 15 -6
BITMAP
01E3
01E7
00F7
00FF
007F
007E
003E
003C
0000
0000
0000
0000
007C
007E
00FE
00FE
0000
0000
0000
0000
0000
0000
0000
0000
0000
007F
00FF
01FF
03E1
03C0
03C0
03C0
0000
0000
0000
0000
ENDCHAR
STARTCHAR U+0064
ENCODING 100
SWIDTH 426 0
DWIDTH 16 0
BBX 16 36 2 -6
BITMAP
C000
8000
8000
0000
0000
0000
0000
0001
0000
0000
0000
0000
0000
0000
0000
0000
0000
0000
0000
0000
0000
0000
0003
0000
0000
0000
8003
8003
8007
0007
0007
0007
0000
0000
0000
0000
ENDCHAR
STARTCHAR U+0065
ENCODING 101
SWIDTH 533 0
DWIDTH 20 0
BBX 16 36 15 -6
BITMAP
0F80
0F00
1E00
3E00
7C00
7800
F800
F000
0000
0000
0000
0000
0000
0000
0000
0000
0000
0000
0000
0000
0000
0000
FFC0
0000
0780
FF80
FF80
FF80
8780
8380
8380
8380
0000
0000
0000
0000
ENDCHAR
STARTCHAR U+0066
ENCODING 102
SWIDTH 426 0
DWIDTH 16 0
BBX 16 36 2 -6
BITMAP
0078
0078
0078
0078
0078
0078
0078
0078
0000
0000
0000
0070
0078
007E
003E
000C
0000
0000
0000
0000
0000
0000
0000
0000
0000
007E
00FF
01FF
03C3
038F
03FF
03FF
0000
0000
0000
0000
ENDCHAR
STARTCHAR U+0067
ENCODING 103
SWIDTH 533 0
DWIDTH 20 0
BBX 16 36 15 -6
BITMAP
0000
0000
0000
0000
0000
0000
0000
0000
0000
0000
0000
0000
0000
0000
0000
0000
0000
0000
0000
0000
0000
0000
0000
0000
0000
0000
0000
8000
C000
C000
C000
C000
0000
0000
0000
0000
ENDCHAR
STARTCHAR U+0068
ENCODING 104
SWIDTH 426 0
DWIDTH 16 0
BBX 16 36 1 -6
BITMAP
0FE7
0FC7
0FC7
0FC7
07C3
0783
0000
0000
3B7F
3B78
3B7F
3B7F
3B7F
3B7F
3B7F
3B07
0000
0000
0000
0000
0000
0000
0000
0000
03F7
03C7
0387
03FF
03FF
01FB
0000
0000
0038
00FF
00FF
00FE
ENDCHAR
STARTCHAR U+0069
ENCODING 105
SWIDTH 400 0
DWIDTH 15 0
BBX 16 36 8 -6
BITMAP
E001
E003
E003
E007
E00F
C00F
0000
0000
F800
3800
F800
F800
F800
F800
F800
3800
0000
0000
0000
0000
0007
0007
0007
0007
8007
8007
8007
E007
C007
C003
0000
0000
0000
0001
0003
0003
ENDCHAR
STARTCHAR U+006A
ENCODING 106
SWIDTH 426 0
DWIDTH 16 0
BBX 16 36 8 -6
BITMAP
EF00
CF80
C780
87C0
83C0
01E0
0000
0000
1C00
1C00
1C00
1C00
1C00
1C00
1C00
1C00
0000
0000
0000
0000
8000
8000
8000
8000
83C0
87C0
CF80
FF80
FF00
3C00
0000
0000
FFC0
FFC0
E7C0
C3C0
ENDCHAR
STARTCHAR U+006B
ENCODING 107
SWIDTH 533 0
DWIDTH 20 0
BBX 16 36 8 -6
BITMAP
003C
003C
003C
003C
003C
001C
0000
0000
01EF
01EF
01C7
03C7
03C3
0783
0181
0000
0000
0000
0000
0000
0000
0000
0000
0000
03C0
03C0
03F3
01FF
00FF
003E
0000
0000
0780
07FE
07FF
07FF
ENDCHAR
STARTCHAR U+006C
ENCODING 108
SWIDTH 426 0
DWIDTH 16 0
BBX 16 36 2 -6
BITMAP
0001
0003
0007
0007
0007
0007
0000
0000
0000
0000
8000
8000
C000
C000
0000
0000
0000
0000
0000
0000
0000
0000
0000
0000
0007
8007
8007
C003
8001
0000
0000
0000
0000
0000
0000
8000
ENDCHAR
STARTCHAR U+006D
ENCODING 109
SWIDTH 533 0
DWIDTH 20 0
BBX 16 36 15 -6
BITMAP
E000
C000
FFC0
FFC0
FFC0
FFC0
0000
0000
0000
0000
0000
0000
0000
0000
0000
0000
0000
0000
0000
0000
0780
0780
0780
0780
8380
8780
CF80
FF80
FF80
FB80
0000
0000
0000
3800
7800
7800
ENDCHAR
STARTCHAR U+006E
ENCODING 110
SWIDTH 426 0
DWIDTH 16 0
BBX 16 36 2 -6
BITMAP
0078
0078
0078
0078
0078
007F
007F
0000
0000
0000
0000
0000
0000
0000
0000
0000
0000
0000
0000
0000
0000
0000
0000
0000
03F8
03C1
03E7
01FF
00FF
003E
0000
0000
0000
003C
003C
003C
ENDCHAR
STARTCHAR U+006F
ENCODING 111
SWIDTH 533 0
DWIDTH 20 0
BBX 16 36 15 -6
BITMAP
0000
0000
0000
0000
0000
0000
0000
0000
0000
0000
0000
0000
0000
0000
0000
0000
0000
0000
0000
0000
0000
0000
0000
0000
0000
8000
C000
C000
8000
0000
0000
0000
0000
0000
0000
0000
ENDCHAR
STARTCHAR U+0070
ENCODING 112
SWIDTH 426 0
DWIDTH 16 0
BBX 16 36 2 -6
BITMAP
001F
003F
003E
0038
003C
003C
003C
003C
003C
0038
0000
0000
0000
0000
0000
0000
01E0
01E0
01E0
01E0
01FE
01CF
01CF
01C7
01C3
01C1
0000
0000
07FE
07FF
07FF
07C7
0783
0783
0783
0783
ENDCHAR
STARTCHAR U+0071
ENCODING 113
SWIDTH 426 0
DWIDTH 16 0
BBX 16 36 15 -6
BITMAP
0000
0000
0000
0000
0001
0000
0000
0000
0003
0001
0001
0000
0000
0000
0000
0000
0000
0000
0000
0000
0000
0000
8000
8000
C000
C000
0000
0000
0001
0003
8003
8007
C007
C007
C007
C007
ENDCHAR
STARTCHAR U+0072
ENCODING 114
SWIDTH 426 0
DWIDTH 16 0
BBX 16 36 2 -6
BITMAP
0000
0000
0000
7980
FFC0
FFC0
7BC0
03C0
FFC0
FF80
FF00
0000
0000
0000
0000
0000
7800
7800
7800
7800
7800
7800
7800
7800
7800
7800
0000
0000
FF80
FF80
FF80
8780
8380
8380
8380
8380
ENDCHAR
STARTCHAR U+0073
ENCODING 115
SWIDTH 426 0
DWIDTH 16 0
BBX 16 36 15 -6
BITMAP
0780
0780
0780
0780
0787
0787
0787
0787
0787
0783
0000
0000
0000
0000
0000
0000
0000
0000
0000
0000
1E3C
1E3C
1E3C
1E3C
1E3C
1E3C
0000
0000
0000
00FF
00FF
00FF
00F0
00F0
00F0
00F0
ENDCHAR
STARTCHAR U+0074
ENCODING 116
SWIDTH 426 0
DWIDTH 16 0
BBX 16 36 6 -6
BITMAP
0000
0000
0000
0000
8000
8000
8000
8000
8000
8000
0000
0000
0000
0000
0000
0000
0000
0000
0000
0000
7807
7807
7807
7807
7807
7807
0000
0000
0000
0000
0001
0003
0003
0003
0001
0000
ENDCHAR
STARTCHAR U+0075
ENCODING 117
SWIDTH 426 0
DWIDTH 16 0
BBX 16 36 14 -6
BITMAP
7800
7800
7800
7800
7800
7800
7800
7800
7800
3800
0000
0000
0000
0000
0000
0000
0000
0000
0000
0000
8780
8780
8780
8780
8780
8380
0000
0000
0000
FE00
FF00
FF00
C300
F000
FC00
FF00
ENDCHAR
STARTCHAR U+0076
ENCODING 118
SWIDTH 426 0
DWIDTH 16 0
BBX 16 36 8 -6
BITMAP
007C
007C
007C
0038
003C
003C
003C
003C
0078
03F8
01F8
0000
0000
0000
0000
0000
0000
0000
0000
0000
0783
0787
07CF
03FF
01FE
007C
0000
0000
0078
01FE
01FE
00FE
0078
0078
0078
0078
ENDCHAR
STARTCHAR U+0077
ENCODING 119
SWIDTH 453 0
DWIDTH 17 0
BBX 16 36 13 -6
BITMAP
0000
0000
0000
0000
0000
0000
0000
0000
0000
0000
0000
0000
0000
0000
0000
0000
0000
0000
0000
0000
C000
C000
8000
0000
0000
0000
0000
0000
0000
0000
0000
0000
0000
0000
0000
0000
ENDCHAR
STARTCHAR U+0078
ENCODING 120
SWIDTH 426 0
DWIDTH 16 0
BBX 16 36 5 -6
BITMAP
003C
003C
003C
003C
0000
0000
0000
0000
0000
0000
0000
0000
01E0
01E7
01E7
01EF
01FE
01FC
01FC
01FE
0000
0000
0000
0000
0000
0000
0000
0000
0787
07CF
07FF
07FF
07BC
0780
0780
0000
ENDCHAR
STARTCHAR U+0079
ENCODING 121
SWIDTH 426 0
DWIDTH 16 0
BBX 16 36 15 -6
BITMAP
0003
0003
0003
0003
0000
0000
0000
0000
0000
0000
0000
0000
0000
C000
8000
0000
0000
0000
0000
0000
0000
0000
0000
0000
0000
0000
0000
0000
C007
8007
8003
0001
0000
0000
0000
0000
ENDCHAR
STARTCHAR U+007A
ENCODING 122
SWIDTH 426 0
DWIDTH 16 0
BBX 16 36 1 -6
BITMAP
C3C0
C3C0
C3C0
E7C0
0000
0000
0000
0000
0000
0000
0000
0000
7800
7800
7800
7800
7800
7800
7800
7800
0000
0000
0000
0000
0000
0000
0000
0000
8780
CF80
FF80
FF80
FF80
0780
0780
0000
ENDCHAR
STARTCHAR U+007B
ENCODING 123
SWIDTH 453 0
DWIDTH 17 0
BBX 16 36 15 -6
BITMAP
07C7
0787
0787
0787
0000
0000
0000
0000
0000
0000
0000
0000
0000
1FF3
1FFF
1FFF
1E3C
1E3C
1E3C
1E3C
0000
0000
0000
0000
0000
0000
0000
0000
00F0
00F0
00F0
00F0
00F0
00F0
0000
0000
ENDCHAR
STARTCHAR U+007C
ENCODING 124
SWIDTH 400 0
DWIDTH 15 0
BBX 16 36 8 -6
BITMAP
8000
8000
8000
8000
0000
0000
0000
0000
0000
0000
0000
0000
0000
E007
F007
F807
7807
7807
7807
7807
0000
0000
0000
0000
0000
0000
0000
0000
0000
0001
0003
0003
0001
0000
0000
0000
ENDCHAR
STARTCHAR U+007D
ENCODING 125
SWIDTH 426 0
DWIDTH 16 0
BBX 16 36 14 -6
BITMAP
7800
7800
7800
7800
0000
0000
0000
0000
0000
0000
0000
0000
0000
FE00
FF00
FF80
C780
8780
8780
8780
0000
0000
0000
0000
0000
0000
0000
0000
7F00
0780
8780
FF80
FF00
FE00
0000
0000
ENDCHAR
STARTCHAR U+007E
ENCODING 126
SWIDTH 426 0
DWIDTH 16 0
BBX 16 36 6 -6
BITMAP
003C
003C
003C
003C
0000
0000
0000
0000
0000
0000
0000
0000
0000
00FE
01FF
03FF
0787
0783
0783
0783
0000
0000
0000
0000
0000
0078
0078
0078
0078
0078
007E
007F
003E
001E
0000
0000
ENDCHAR
STARTCHAR U+007F
ENCODING 127
SWIDTH 426 0
DWIDTH 16 0
BBX 16 36 15 -6
BITMAP
0000
0000
0000
0000
0000
0000
0000
0000
0000
0000
0000
0000
0000
0000
0000
8000
8000
C000
C000
C000
0000
0000
0000
0000
0000
0000
0000
0000
0000
0000
0000
0000
0000
0000
0000
0000
ENDCHAR
STARTCHAR U+0080
ENCODING 128
SWIDTH 213 0
DWIDTH 8 0
BBX 16 36 1 -6
BITMAP
0000
0000
0000
0000
0000
0000
0000
0000
0787
0787
0787
07FF
03FF
01FB
0000
0000
0000
01FF
01FF
01FF
000F
001F
003E
003C
0000
0000
0000
0000
0000
0000
0000
0000
0000
0000
0000
0000
ENDCHAR
STARTCHAR U+0081
ENCODING 129
SWIDTH 533 0
DWIDTH 20 0
BBX 16 36 15 -6
BITMAP
0000
0000
0000
0000
0000
0000
0000
0000
8000
8000
8000
8000
8000
8000
0000
0000
0000
C000
C000
8000
0000
0000
0000
0000
0000
0000
0000
0000
0000
0001
0003
0003
0007
0003
0003
0001
ENDCHAR
STARTCHAR U+0082
ENCODING 130
SWIDTH 426 0
DWIDTH 16 0
BBX 16 36 2 -6
BITMAP
0000
0000
0000
0000
0000
0000
0000
0000
FF00
7F00
7E00
7E00
3E00
3C00
0000
0000
3800
3C00
3C00
7C00
F800
F800
3C00
3C00
0000
0000
0000
3F00
FFC0
FFE0
FFF0
E0E0
C040
C0E0
F3F0
FFE0
ENDCHAR
STARTCHAR U+0083
ENCODING 131
SWIDTH 426 0
DWIDTH 16 0
BBX 16 36 15 -6
BITMAP
0000
0000
0000
0000
0000
0000
0000
0000
07FF
07E7
07E7
07E7
03E7
03C3
0000
0000
001C
001C
001C
0000
0000
0000
0018
001C
0000
0000
0000
0000
0000
0000
0000
0000
0000
0000
0000
0000
ENDCHAR
STARTCHAR U+0084
ENCODING 132
SWIDTH 426 0
DWIDTH 16 0
BBX 16 36 1 -6
BITMAP
0000
0000
0000
0000
0000
0000
0000
0000
E000
E000
E001
C001
C003
C003
0000
0000
0000
0000
0000
0000
0000
0000
0000
0000
0000
0000
0000
0000
0000
0000
0000
0000
0000
0000
0000
0000
ENDCHAR
STARTCHAR U+0085
ENCODING 133
SWIDTH 373 0
DWIDTH 14 0
BBX 16 36 8 -6
BITMAP
0000
0000
0000
0000
0000
0000
0000
0000
7E00
FF00
FF80
E780
C3C0
83C0
0000
0000
3800
3800
7800
3C00
3E00
3E00
3800
7800
0000
0000
0000
0000
0000
0000
0000
0000
0000
3800
7C00
7C00
ENDCHAR
STARTCHAR U+0086
ENCODING 134
SWIDTH 426 0
DWIDTH 16 0
BBX 16 36 2 -6
BITMAP
0000
0000
0000
0000
0000
0000
0000
0000
00FE
007E
007C
003C
0078
03F8
03F0
0000
0000
0000
0000
0000
0000
0000
0000
0000
0000
0000
0000
0000
0000
0000
0000
0000
0000
0000
0000
0000
ENDCHAR
STARTCHAR U+0087
ENCODING 135
SWIDTH 373 0
DWIDTH 14 0
BBX 16 36 7 -6
BITMAP
0000
0000
0000
0000
0000
0000
0000
0000
0000
0000
0000
0000
0000
0000
0000
0000
0000
0000
0000
0000
0000
0000
0000
0000
0000
0000
0000
0000
0000
0000
0000
0000
0000
0000
0000
0000
ENDCHAR
STARTCHAR U+0088
ENCODING 136
SWIDTH 426 0
DWIDTH 16 0
BBX 16 36 2 -6
BITMAP
0000
0787
0787
0787
0787
0787
0787
0787
0000
0000
0000
0000
0000
0000
0000
0000
0078
00F0
01FF
03FF
03FF
01FF
0000
0000
0000
0000
0000
0000
0000
0000
0000
0000
0000
0000
0000
0000
ENDCHAR
STARTCHAR U+0089
ENCODING 137
SWIDTH 533 0
DWIDTH 20 0
BBX 16 36 15 -6
BITMAP
0000
8003
8003
8003
8001
8001
8000
8000
0000
0000
0000
0000
0000
0000
0000
0000
0000
0000
8000
C000
C000
8000
0000
0000
0007
0007
000F
000F
0007
000F
000F
000F
0000
0000
0000
0000
ENDCHAR
STARTCHAR U+008A
ENCODING 138
SWIDTH 426 0
DWIDTH 16 0
BBX 16 36 5 -6
BITMAP
0000
C1E0
C3C0
E3C0
E3C0
E780
F780
F780
0000
0000
1E00
3F00
3E00
3800
3800
3800
3C00
3800
3800
3800
3800
3E00
3F00
0000
C040
C000
FF00
FF00
8000
FE00
FE00
FE00
0000
0000
0000
0000
ENDCHAR
STARTCHAR U+008B
ENCODING 139
SWIDTH 426 0
DWIDTH 16 0
BBX 16 36 15 -6
BITMAP
0000
1C3C
1E3C
1E7E
1E7E
0F7E
0F7E
0FFF
0000
0000
0000
0018
001C
001C
001C
001C
001C
001C
001C
001C
001C
001C
0000
0000
0000
0000
0000
0000
0000
0000
0000
0000
0000
0000
0000
0000
ENDCHAR
STARTCHAR U+008C
ENCODING 140
SWIDTH 426 0
DWIDTH 16 0
BBX 16 36 4 -6
BITMAP
0000
3803
7801
7801
7000
7000
F000
F000
0000
0000
0000
0000
0000
0000
0000
0000
0000
0000
0000
0000
0000
0000
0000
0000
0000
0000
0000
0000
0000
0000
0000
0000
0000
0000
0000
0000
ENDCHAR
STARTCHAR U+008D
ENCODING 141
SWIDTH 426 0
DWIDTH 16 0
BBX 16 36 15 -6
BITMAP
0000
C3C0
E780
FF00
FF00
7E00
7C00
7E00
0000
0000
F000
F800
FC00
3C00
3800
3800
3800
3800
3800
3800
3C00
FC00
F800
0000
0000
0000
0000
0000
0000
0000
0000
0000
0000
0000
0000
0000
ENDCHAR
STARTCHAR U+008E
ENCODING 142
SWIDTH 426 0
DWIDTH 16 0
BBX 16 36 4 -6
BITMAP
0783
03C3
03C7
03E7
01E7
01EF
00FF
00FE
0000
0000
0000
00E0
01FF
01FF
019E
0000
0000
0000
0000
0000
0000
0000
0000
0000
0000
0000
0000
0000
0000
0000
0000
0000
0000
0000
0000
0000
ENDCHAR
STARTCHAR U+008F
ENCODING 143
SWIDTH 426 0
DWIDTH 16 0
BBX 16 36 15 -6
BITMAP
C000
8000
8000
8000
0000
0000
0000
0000
0000
0000
0000
0000
0000
0000
0000
0000
0000
0000
0000
0000
0000
0000
0000
0000
0000
0000
0000
0000
0000
0000
0000
0000
0000
0000
0000
0000
ENDCHAR
STARTCHAR U+0090
ENCODING 144
SWIDTH 426 0
DWIDTH 16 0
BBX 16 36 4 -6
BITMAP
0000
0000
0000
0000
0000
0000
0000
0000
0000
0000
0000
0000
00E7
00FF
00FF
00FF
00F7
0063
00E7
0000
07BB
03C7
01EF
0EFE
1F7C
1F7C
0EFE
01EF
0000
00FF
007E
003C
0000
07FF
07FF
07FF
ENDCHAR
STARTCHAR U+0091
ENCODING 145
SWIDTH 426 0
DWIDTH 16 0
BBX 16 36 15 -6
BITMAP
0000
0000
0000
0000
0000
0000
0000
0000
0000
0000
0000
0000
0000
0000
0000
0000
0000
0000
0000
0000
C003
8003
0003
F001
F000
F000
7000
0000
0000
0000
0000
0000
0000
C000
C000
C000
ENDCHAR
STARTCHAR U+0092
ENCODING 146
SWIDTH 426 0
DWIDTH 16 0
BBX 16 36 4 -6
BITMAP
FFC0
7F80
0000
0000
0000
0000
0000
0000
0000
0000
0000
0000
0000
0000
0000
0000
0000
0000
0000
0000
C100
C000
F800
FE00
FF00
7F80
0FC0
03C0
0000
0000
0000
0000
0000
0000
0000
0000
ENDCHAR
STARTCHAR U+0093
ENCODING 147
SWIDTH 426 0
DWIDTH 16 0
BBX 16 36 8 -6
BITMAP
0000
0000
0000
0000
0000
0000
0000
003C
003C
003C
003C
01FF
003C
003C
003C
003C
003C
003C
003C
0000
0000
0001
0003
000F
003F
00FE
01F8
01F0
0000
0000
0000
0000
0000
0000
0000
0000
ENDCHAR
STARTCHAR U+0094
ENCODING 148
SWIDTH 426 0
DWIDTH 16 0
BBX 16 36 8 -6
BITMAP
0000
0000
0000
0000
0000
0000
0000
0000
0000
0000
0000
C003
0001
0003
0003
0001
0000
0000
0000
0000
003C
803C
803C
803C
803C
003C
003C
003C
0000
0000
0000
0000
0000
0000
0000
0000
ENDCHAR
STARTCHAR U+0095
ENCODING 149
SWIDTH 480 0
DWIDTH 18 0
BBX 16 36 8 -6
BITMAP
7C00
3C00
3800
0000
0000
0000
0000
3C00
3C00
3C00
3C00
FFC0
FF80
FFC0
FFC0
FFC0
3C00
3C00
3C00
0000
1E00
1E00
1E00
1FF0
1FF0
1FF0
1E00
1E00
0000
0000
0000
0006
000E
000E
000C
000E
ENDCHAR
STARTCHAR U+0096
ENCODING 150
SWIDTH 426 0
DWIDTH 16 0
BBX 16 36 3 -6
BITMAP
0000
0000
0000
0000
0000
0000
0000
0000
0000
0000
0000
0000
0000
0000
0000
0000
0000
0000
0000
0000
0000
0000
0000
0000
0000
0000
0000
0000
0000
0000
0000
1E00
1E00
1E00
1E00
1E00
ENDCHAR
STARTCHAR U+0097
ENCODING 151
SWIDTH 480 0
DWIDTH 18 0
BBX 16 36 15 -6
BITMAP
0000
0000
0000
0000
0000
0000
0000
0000
0000
0000
0000
0000
0000
0000
0000
0000
0000
0000
0000
0000
0000
0000
0000
0000
0000
0000
0000
0000
0000
0000
0000
0000
0000
0000
0000
0000
ENDCHAR
STARTCHAR U+0098
ENCODING 152
SWIDTH 426 0
DWIDTH 16 0
BBX 16 36 3 -6
BITMAP
0000
0000
0000
0000
0000
0000
0000
0000
0000
0000
0000
0000
0000
0000
0000
0000
0800
1C38
0E7C
0F7C
03C3
07B9
0F7C
1E7C
1C38
0800
0000
0000
000F
000F
001E
003E
007C
0078
00F8
01F0
ENDCHAR
STARTCHAR U+0099
ENCODING 153
SWIDTH 480 0
DWIDTH 18 0
BBX 16 36 15 -6
BITMAP
0000
0000
0000
0000
0000
0000
0000
001C
003E
003E
001C
0000
0000
0000
0000
0000
1000
3801
7003
E003
8003
C007
E007
7003
3801
1000
0000
0000
8000
0000
0000
0000
0000
0000
0000
0000
ENDCHAR
STARTCHAR U+009A
ENCODING 154
SWIDTH 426 0
DWIDTH 16 0
BBX 16 36 1 -6
BITMAP
0000
0000
0000
0000
0000
0000
0000
3C38
3C7C
3C7C
1C38
0000
0000
7E00
3C00
7C00
FF00
FF80
FFC0
C380
83C0
83C0
C7C0
FFC0
FF80
FF00
0000
0000
0000
0000
0000
0000
0000
0000
0000
0000
ENDCHAR
STARTCHAR U+009B
ENCODING 155
SWIDTH 480 0
DWIDTH 18 0
BBX 16 36 15 -6
BITMAP
0000
0000
0000
0000
03FF
03FF
01FF
003C
003C
003C
003C
003C
0000
0000
0000
0000
0000
0000
0000
0000
01F0
00FC
007F
001F
0007
0003
0000
0000
0000
0000
0000
0000
0000
0000
0000
0000
ENDCHAR
STARTCHAR U+009C
ENCODING 156
SWIDTH 426 0
DWIDTH 16 0
BBX 16 36 3 -6
BITMAP
0000
0000
0000
0000
C003
C003
8000
0000
0000
0000
0000
0000
0000
0000
0000
0003
0007
000F
001F
003E
003C
003E
001F
801F
800F
8007
0000
0000
0000
0000
0000
0000
0000
0000
0000
0000
ENDCHAR
STARTCHAR U+009D
ENCODING 157
SWIDTH 480 0
DWIDTH 18 0
BBX 16 36 15 -6
BITMAP
0000
0000
0000
0000
FFC0
FFC0
3C00
3C00
3C00
3C00
3C00
3C00
0000
0000
0000
C000
FFF8
FFF8
FFF8
1E00
1E00
1E00
7FF8
FFFC
FFFC
FFF8
0000
0000
000E
000E
000E
0000
0000
0000
0000
0000
ENDCHAR
STARTCHAR U+009E
ENCODING 158
SWIDTH 426 0
DWIDTH 16 0
BBX 16 36 5 -6
BITMAP
0000
0000
0000
0000
0000
0000
0000
0000
0000
0000
0000
0000
0000
0000
0000
0000
0000
0000
0000
0000
0000
0000
0000
0000
0000
0000
0000
0000
0E00
1C00
0800
0000
0000
0000
0000
0000
ENDCHAR
STARTCHAR U+009F
ENCODING 159
SWIDTH 426 0
DWIDTH 16 0
BBX 16 36 15 -6
BITMAP
0000
0000
0000
0000
0000
0000
0000
0000
0000
0000
0000
0000
0000
0000
0000
0000
0000
0000
0000
0000
0000
0000
0000
0000
0000
0000
0000
0000
0000
0000
0000
0000
0000
0000
0000
0000
ENDCHAR
STARTCHAR U+00A0
ENCODING 160
SWIDTH 426 0
DWIDTH 16 0
BBX 16 36 5 -6
BITMAP
01E0
03C0
07FF
07FF
07FF
07FF
0000
0000
0001
0001
0001
0000
0000
0000
0000
0000
0000
0000
0000
0000
0000
0000
0000
0000
0000
0000
0000
0000
0000
0000
0000
0000
0000
0000
0000
0000
ENDCHAR
STARTCHAR U+00A1
ENCODING 161
SWIDTH 426 0
DWIDTH 16 0
BBX 16 36 13 -6
BITMAP
0000
0000
C000
C000
C000
C000
0000
0000
CE0C
CE1D
CE18
0000
0000
0000
0000
0000
0000
0000
0000
0000
001F
001F
000F
0003
0000
0000
0000
0000
0000
0000
0000
0000
0000
0000
0000
0000
ENDCHAR
STARTCHAR U+00A2
ENCODING 162
SWIDTH 426 0
DWIDTH 16 0
BBX 16 36 5 -6
BITMAP
0000
0000
0000
0000
0000
0000
0000
0000
E000
C000
8000
0000
0000
0000
0000
0000
0000
0000
0000
0000
FC70
FCF0
FEF0
BEF0
0000
0000
0000
0000
0000
0000
0000
0000
0000
0000
0000
6300
ENDCHAR
STARTCHAR U+00A3
ENCODING 163
SWIDTH 426 0
DWIDTH 16 0
BBX 16 36 13 -6
BITMAP
0000
0000
0000
0000
0000
0000
0000
0000
0000
0000
0000
0000
003C
007C
007E
007E
0000
0000
0000
00C6
01EE
00FE
007C
0038
003F
0107
0387
03FF
01FF
00FE
0000
0000
0000
00EF
00EF
0000
ENDCHAR
STARTCHAR U+00A4
ENCODING 164
SWIDTH 426 0
DWIDTH 16 0
BBX 16 36 1 -6
BITMAP
0000
0000
0000
0000
0000
0000
0000
0000
0000
0000
0000
0000
0000
0000
0003
0003
0000
0000
0000
0000
0000
0000
0000
0000
0000
8000
8000
8001
0001
0001
0000
0000
0000
0000
0000
0000
ENDCHAR
STARTCHAR U+00A5
ENCODING 165
SWIDTH 426 0
DWIDTH 16 0
BBX 16 36 13 -6
BITMAP
0000
0000
0000
0000
0000
0000
0000
0000
0000
0000
0000
0000
0000
0000
FFC0
FFC0
0000
0000
0000
0000
0000
0000
0000
0000
0F80
3F80
FE00
F800
F000
C000
0000
0000
0000
0000
0000
0000
ENDCHAR
STARTCHAR U+00A6
ENCODING 166
SWIDTH 426 0
DWIDTH 16 0
BBX 16 36 5 -6
BITMAP
0000
0000
0000
0000
0000
0000
0000
0000
0000
0000
0000
0000
0000
0000
0000
3FFF
0000
0000
0000
0000
0000
0000
0000
0000
3C3F
3C3C
3C7C
1FFF
1FFF
07E7
0000
0000
0000
0000
0000
0000
ENDCHAR
STARTCHAR U+00A7
ENCODING 167
SWIDTH 426 0
DWIDTH 16 0
BBX 16 36 14 -6
BITMAP
0000
0000
0000
0000
0000
0000
0000
0000
0000
0000
0000
0000
0000
0000
0000
FE00
0000
0000
0000
0000
0000
0000
0000
0000
E000
1000
3800
FC00
F800
F000
0000
0000
0000
0000
0000
0000
ENDCHAR
STARTCHAR U+00A8
ENCODING 168
SWIDTH 400 0
DWIDTH 15 0
BBX 16 36 8 -6
BITMAP
0000
0000
0000
0000
0001
0001
0001
0001
0000
0000
0000
0000
0000
0000
0000
0000
0000
0000
0000
0000
0000
0000
0000
0000
0000
0000
0000
0000
0000
0000
0000
0000
0000
0000
0000
0000
ENDCHAR
STARTCHAR U+00A9
ENCODING 169
SWIDTH 400 0
DWIDTH 15 0
BBX 16 36 7 -6
BITMAP
0000
0000
0000
C61D
CE1D
8C1D
8C1D
CE1C
0000
0000
0000
0000
0000
0000
0000
0000
0003
0003
0003
0003
0003
0003
0000
0000
0000
0000
0000
0000
0000
0000
0000
0000
0000
0001
0001
0001
ENDCHAR
STARTCHAR U+00AA
ENCODING 170
SWIDTH 400 0
DWIDTH 15 0
BBX 16 36 8 -6
BITMAP
0000
0000
0000
E000
E000
E000
E000
E000
0000
0000
0000
0000
0000
0000
0000
0000
BEF0
BFF0
BFF0
BFF0
BFF0
1BB0
0000
0000
0000
0000
0000
0000
0000
0000
0000
0000
0000
FFC0
FFC0
FF80
ENDCHAR
STARTCHAR U+00AB
ENCODING 171
SWIDTH 426 0
DWIDTH 16 0
BBX 16 36 14 -6
BITMAP
0000
0000
0000
0000
0000
0000
0000
0000
007C
0038
0000
0000
0000
0000
0000
0000
0000
00FE
01FF
03FF
03C3
03F0
01FE
00FF
0000
0000
0000
0000
0000
0000
0000
0000
03C7
01E7
01EF
00FF
ENDCHAR
STARTCHAR U+00AC
ENCODING 172
SWIDTH 426 0
DWIDTH 16 0
BBX 16 36 4 -6
BITMAP
0000
0000
0000
0000
0000
0000
0000
0000
0001
0000
0000
0000
0000
0000
0000
0000
0000
0001
0001
0001
0000
0000
0000
0000
0000
0000
0000
0000
0000
0000
0000
0000
8000
8000
0000
0000
ENDCHAR
STARTCHAR U+00AD
ENCODING 173
SWIDTH 426 0
DWIDTH 16 0
BBX 16 36 15 -6
BITMAP
0000
0000
0000
0000
0000
0000
0000
0000
FFC0
0000
0000
0000
0000
0000
0000
0000
0000
8000
E000
F000
FC00
7F00
1F80
0780
0000
0000
0000
0000
0000
0000
0000
0000
0000
0000
0000
0000
ENDCHAR
STARTCHAR U+00AE
ENCODING 174
SWIDTH 426 0
DWIDTH 16 0
BBX 16 36 4 -6
BITMAP
0000
0000
0000
0000
0000
0000
0000
0000
3FFF
0000
0000
0000
0000
0000
0000
0000
0000
07E7
1FFF
1FFF
3C7C
3C3C
3C3F
383F
0000
0000
0000
0000
0000
0000
0000
0000
0000
001C
001C
001C
ENDCHAR
STARTCHAR U+00AF
ENCODING 175
SWIDTH 586 0
DWIDTH 22 0
BBX 16 36 15 -6
BITMAP
0000
0000
0000
0000
0000
0000
0000
0000
FE00
0000
0000
0000
0000
0000
0000
0000
0000
E000
F000
F800
3800
7C00
FC00
FC00
0000
0000
0000
0000
0000
0000
0000
0000
0000
0000
0000
0000
ENDCHAR
STARTCHAR U+00B0
ENCODING 176
SWIDTH 426 0
DWIDTH 16 0
BBX 16 36 4 -6
BITMAP
0000
0000
0000
0000
0000
0000
0000
0000
0000
0000
0000
0000
0007
007F
00FF
01FF
03EF
03CE
038C
039C
0000
0000
0000
007E
00FF
01FF
01E3
01E2
007F
000F
00C3
01C3
01FF
00FF
007F
0000
ENDCHAR
STARTCHAR U+00B1
ENCODING 177
SWIDTH 426 0
DWIDTH 16 0
BBX 16 36 15 -6
BITMAP
0000
0000
0000
0000
0000
0000
0001
0003
0003
0001
0000
0000
0003
0003
8003
8003
800F
000F
000F
0001
0000
0000
0000
0000
0000
8000
8000
0000
0000
8000
8000
8000
8000
8000
0000
0000
ENDCHAR
STARTCHAR U+00B2
ENCODING 178
SWIDTH 426 0
DWIDTH 16 0
BBX 16 36 4 -6
BITMAP
F780
7F00
3E00
1C00
7800
F000
FF80
FFC0
FFC0
FF80
0000
0000
8380
8300
8000
C000
FE00
FE00
FE00
E000
0000
0000
0000
EF00
EF00
EF00
0000
0000
0000
0000
0000
0000
0000
0000
0000
0000
ENDCHAR
STARTCHAR U+00B3
ENCODING 179
SWIDTH 426 0
DWIDTH 16 0
BBX 16 36 15 -6
BITMAP
0F01
0781
0783
03C3
003C
003C
003C
003C
003C
003C
0000
0000
0301
07FF
07FF
03FF
0387
0383
0383
0387
0000
0000
0000
0000
0000
007C
01FF
03C7
0DFF
0EFE
077D
03C7
01FF
007C
0000
0000
ENDCHAR
STARTCHAR U+00B4
ENCODING 180
SWIDTH 426 0
DWIDTH 16 0
BBX 16 36 4 -6
BITMAP
E000
E000
C000
C000
0000
0000
0000
0000
0000
0000
0000
0000
0003
8003
8007
0007
800F
800F
801F
803F
0000
0000
0000
0000
0000
0000
0000
8000
6000
6000
C000
8000
0000
0000
0000
0000
ENDCHAR
STARTCHAR U+00B5
ENCODING 181
SWIDTH 373 0
DWIDTH 14 0
BBX 16 36 13 -6
BITMAP
0000
0000
0000
0000
0000
0000
0000
0000
0000
0000
0000
0000
9CE0
9CE0
1CE0
1DE0
9DE0
DFF0
FFF8
FFBC
0000
0000
0000
0000
FC00
FE00
FE00
FE00
0000
0000
0000
0000
0000
0000
0000
0000
ENDCHAR
STARTCHAR U+00B6
ENCODING 182
SWIDTH 26 0
DWIDTH 1 0
BBX 16 36 0 -6
BITMAP
001C
003E
003E
003E
001C
001C
003C
003C
003E
003E
0000
0000
001C
001C
001C
001C
001C
001C
001C
001C
0000
0000
0000
0000
0000
0000
0000
0000
03DE
03FF
01FF
007B
0039
0018
0008
0000
ENDCHAR
STARTCHAR U+00B7
ENCODING 183
SWIDTH 3040 0
DWIDTH 114 0
BBX 16 36 0 -6
BITMAP
0000
0000
0000
0000
0000
0000
0000
0000
0000
0000
0000
0000
0000
0000
0000
0000
0000
0000
0000
0000
0000
0000
0000
0000
0000
0000
0000
0000
0000
8000
C000
E000
E000
6000
0000
0000
ENDCHAR
STARTCHAR U+00B8
ENCODING 184
SWIDTH 6000 0
DWIDTH 225 0
BBX 16 36 15 -6
BITMAP
0000
0000
0000
0000
0000
0000
0000
0000
0000
0000
0002
0003
039C
03D8
03FB
01FF
00FF
003E
0070
0000
00FC
01FF
03FF
03C7
0381
03C1
03FF
00FF
0000
0000
0000
0000
0000
0000
0000
0000
ENDCHAR
STARTCHAR U+00B9
ENCODING 185
SWIDTH 3040 0
DWIDTH 114 0
BBX 16 36 15 -6
BITMAP
0000
0000
0000
0000
0000
0000
0000
0000
0000
0001
0003
0003
0001
0003
8007
800F
8007
0004
0000
0000
0000
0000
8000
C000
C000
C000
C000
8000
0000
0000
0000
0000
0000
0000
0000
0000
ENDCHAR
STARTCHAR U+00BA
ENCODING 186
SWIDTH 6000 0
DWIDTH 225 0
BBX 16 36 15 -6
BITMAP
0F00
1F00
3E00
3C00
0000
0000
0000
0000
FE00
FF00
FF80
C780
C000
C000
FFC0
FFC0
FFC0
1F00
0000
0000
0000
0000
0000
0000
0000
0000
0000
0000
0000
0000
0000
0000
0000
0000
0000
0000
ENDCHAR
STARTCHAR U+00BB
ENCODING 187
SWIDTH 426 0
DWIDTH 16 0
BBX 16 36 15 -6
BITMAP
00FE
007E
007C
003C
0000
0000
0000
0000
0000
0000
0000
0000
03FF
07FF
07FF
0301
0000
0000
0000
0000
073D
0EFE
0CFF
1DE6
19C0
19C0
19C0
1DC6
0000
0000
0000
0000
0000
007C
01FF
03C7
ENDCHAR
STARTCHAR U+00BC
ENCODING 188
SWIDTH 426 0
DWIDTH 16 0
BBX 16 36 2 -6
BITMAP
0000
0000
0000
0000
0000
0000
0000
0000
001F
001F
0000
0003
003C
801C
8000
0000
003F
003F
003F
0000
C000
E000
6000
7000
3000
3000
3000
7000
0000
0000
0000
0000
0000
0000
0000
8000
ENDCHAR
STARTCHAR U+00BD
ENCODING 189
SWIDTH 426 0
DWIDTH 16 0
BBX 16 36 2 -6
BITMAP
0000
0000
0000
0000
0000
0000
0000
0000
FFFC
FFFC
1C00
1C60
DF3C
5D1C
1C00
1C00
FFFC
FFFC
FFFC
0000
EE00
FE00
FE00
0000
0000
0000
0000
0000
0000
0000
0000
0000
FF00
FF00
FE00
0000
ENDCHAR
STARTCHAR U+00BE
ENCODING 190
SWIDTH 426 0
DWIDTH 16 0
BBX 16 36 2 -6
BITMAP
001C
001C
001C
001C
0000
0000
0000
0018
001C
001C
001C
001C
001C
001C
001C
001C
001C
001C
0000
0000
0000
0008
0018
0079
00FB
01FF
03FF
039E
0000
0000
0000
1E00
3F00
3300
3700
3E00
ENDCHAR
STARTCHAR U+00BF
ENCODING 191
SWIDTH 426 0
DWIDTH 16 0
BBX 16 36 2 -6
BITMAP
0000
0000
0000
0000
0000
0000
0000
0000
0000
0000
0000
0000
0000
0000
0000
0000
0000
0000
0000
0000
0000
6000
E000
E000
C000
8000
0000
0000
0000
0000
0000
0000
0000
0000
0000
0000
ENDCHAR
STARTCHAR U+00C0
ENCODING 192
SWIDTH 426 0
DWIDTH 16 0
BBX 16 36 2 -6
BITMAP
0000
0000
0000
0000
07FF
07FF
07FF
03FF
0000
0000
0004
000C
000C
000E
001E
001E
00FF
00FF
01FF
01F3
01C0
0180
0300
0000
0000
0000
0000
0000
01FF
03FF
07FF
07FB
003B
003B
003B
003B
ENDCHAR
STARTCHAR U+00C1
ENCODING 193
SWIDTH 426 0
DWIDTH 16 0
BBX 16 36 2 -6
BITMAP
0000
0000
0000
0000
0000
0000
0000
0003
0000
0000
0000
0000
0000
0000
0000
0000
C01E
C01E
E01F
E00F
E007
7003
3000
0000
0000
0000
0000
0000
8000
8000
8000
8000
8000
8000
8000
8000
ENDCHAR
STARTCHAR U+00C2
ENCODING 194
SWIDTH 426 0
DWIDTH 16 0
BBX 16 36 2 -6
BITMAP
0000
0000
0000
0000
0000
0000
0000
FF00
0000
0000
0000
0000
0000
7FF0
7FF0
7FF0
3860
3800
F800
F000
F000
C000
0000
0000
0000
0000
0000
0000
0000
0000
0000
0000
3C00
3800
0000
0000
ENDCHAR
STARTCHAR U+00C3
ENCODING 195
SWIDTH 426 0
DWIDTH 16 0
BBX 16 36 2 -6
BITMAP
077D
0EFE
0CFF
1CE7
18FF
18FE
18FE
1CEE
0000
0000
0000
003C
007F
00FF
01FF
01E3
0FFF
003C
003C
003C
003C
003C
001C
0000
0000
0000
0000
0000
0000
0000
0000
0000
0000
0000
0000
0000
ENDCHAR
STARTCHAR U+00C4
ENCODING 196
SWIDTH 426 0
DWIDTH 16 0
BBX 16 36 2 -6
BITMAP
C000
E000
6000
7000
3000
3000
3000
7000
0000
0000
0000
0000
0000
0000
8000
8000
F000
0000
0000
0000
0000
0000
0000
0000
0000
0000
0000
0000
0000
0000
0000
0000
0001
0000
0000
0000
ENDCHAR
STARTCHAR U+00C5
ENCODING 197
SWIDTH 426 0
DWIDTH 16 0
BBX 16 36 2 -6
BITMAP
0000
0000
0000
0000
0000
0000
0000
0000
0000
0000
0000
0C00
3E00
7E00
7800
2000
0000
0000
0000
0000
0000
0000
0000
0000
0000
0000
0000
0000
0000
0000
0000
0000
C000
0000
0000
0000
ENDCHAR
STARTCHAR U+00C6
ENCODING 198
SWIDTH 426 0
DWIDTH 16 0
BBX 16 36 2 -6
BITMAP
1C00
0000
0000
0000
0000
0000
0000
0000
0000
0000
0000
0000
0000
0000
0000
0000
0787
07C7
07FF
07FF
07FB
0780
0780
0000
0000
0000
0000
0000
007C
00FE
00C6
00C6
0000
0000
0000
0000
ENDCHAR
STARTCHAR U+00C7
ENCODING 199
SWIDTH 426 0
DWIDTH 16 0
BBX 16 36 2 -6
BITMAP
0000
0000
0000
0000
0000
0000
0000
0000
0000
0000
0000
0000
0000
0000
0000
0000
8000
8000
8000
8000
8000
0000
0000
0000
0000
0000
0000
0000
0000
0000
0000
0000
0000
0000
0000
0000
ENDCHAR
STARTCHAR U+00C8
ENCODING 200
SWIDTH 426 0
DWIDTH 16 0
BBX 16 36 2 -6
BITMAP
0007
0007
0007
0003
0000
0000
0000
0000
001F
003F
3FFF
0FFF
07FF
03FF
00FF
00FF
0000
0000
0000
0000
0000
0000
0000
0000
07FB
07FB
07FB
07FB
03FB
01FB
003B
003B
0000
0000
0000
0000
ENDCHAR
STARTCHAR U+00C9
ENCODING 201
SWIDTH 426 0
DWIDTH 16 0
BBX 16 36 2 -6
BITMAP
0003
0000
0000
0000
0000
0000
0000
0000
0000
0000
FE00
FE00
F803
F00F
E00F
C01E
0000
0000
0000
0000
0000
0000
0000
0000
8000
8000
8000
8000
8000
8000
8000
8000
0000
0000
0000
0000
ENDCHAR
STARTCHAR U+00CA
ENCODING 202
SWIDTH 426 0
DWIDTH 16 0
BBX 16 36 2 -6
BITMAP
FF00
0000
0000
0000
0000
0000
0000
0000
7FF0
07F0
0FF0
1FF0
FEF0
FCF0
F8F0
38F0
0000
0000
0000
0000
0000
0000
0000
0000
0000
0000
0000
0000
0000
0000
3C00
3C00
0000
0000
0000
0000
ENDCHAR
STARTCHAR U+00CB
ENCODING 203
SWIDTH 426 0
DWIDTH 16 0
BBX 16 36 2 -6
BITMAP
0CEF
0EE7
0763
03C7
01FF
007C
0000
0000
01C3
01E7
01FF
00FF
007E
07FF
0FFF
0FFF
0000
0000
0000
0000
0000
0000
0000
0000
0000
0000
0000
0000
0000
0000
0000
0000
0000
0000
0000
0010
ENDCHAR
STARTCHAR U+00CC
ENCODING 204
SWIDTH 426 0
DWIDTH 16 0
BBX 16 36 2 -6
BITMAP
6000
E000
C000
8000
0000
0000
0000
0000
8000
8000
8000
0000
0000
E000
F000
F000
0000
0000
0000
0000
0000
0000
0000
0000
0000
0000
0003
0007
001F
003F
000F
0003
0000
0000
0000
0000
ENDCHAR
STARTCHAR U+00CD
ENCODING 205
SWIDTH 426 0
DWIDTH 16 0
BBX 16 36 2 -6
BITMAP
0000
0000
0000
0000
0000
0000
0000
0000
0000
0000
0000
0000
0000
0000
0000
0000
0000
0000
0000
0000
0000
0000
0000
0000
0000
C000
E000
C000
FFFE
FFFE
FFFC
E000
0000
0000
0000
3800
ENDCHAR
STARTCHAR U+00CE
ENCODING 206
SWIDTH 426 0
DWIDTH 16 0
BBX 16 36 2 -6
BITMAP
0000
0000
0000
0000
0000
0000
0000
0000
0000
0787
0787
0787
0787
0787
0787
0787
0000
0000
0000
0000
0000
0000
0000
0000
00EE
00FE
007C
0000
0000
0000
0000
0000
0000
0000
0000
0000
ENDCHAR
STARTCHAR U+00CF
ENCODING 207
SWIDTH 426 0
DWIDTH 16 0
BBX 16 36 2 -6
BITMAP
0000
0000
0000
0000
0000
0000
0000
0000
0000
8000
8000
8000
8000
8000
8000
8000
0000
0000
0000
0000
0000
0000
0000
0000
0000
0000
0000
0000
0000
0000
0000
0000
0000
0000
0000
0000
ENDCHAR
STARTCHAR U+00D0
ENCODING 208
SWIDTH 426 0
DWIDTH 16 0
BBX 16 36 2 -6
BITMAP
003B
003B
003B
0000
0000
0218
031C
03DE
03EF
01FF
00FB
0039
0000
003C
003E
001E
0006
007E
007E
007F
07FF
0781
0781
0F00
0F00
0E00
0000
0000
00FF
00FF
00FF
01E7
01E7
01E7
03FF
03FF
ENDCHAR
STARTCHAR U+00D1
ENCODING 209
SWIDTH 426 0
DWIDTH 16 0
BBX 16 36 2 -6
BITMAP
8000
8000
8000
0000
0000
0000
0000
0000
003F
C03F
E03F
E000
0000
0000
0000
0000
0000
0000
0000
0000
E007
E007
F007
F00F
F00F
700E
0000
0000
0000
0001
0001
8003
8003
C007
C007
C00F
ENDCHAR
STARTCHAR U+00D2
ENCODING 210
SWIDTH 426 0
DWIDTH 16 0
BBX 16 36 2 -6
BITMAP
0000
0000
0000
0000
0000
0300
07C0
03F0
FFFC
FFFC
FFF0
07C0
0000
3E00
7E00
7800
2000
7E00
7E00
7F00
FFE0
81E0
81F0
00F0
00F0
0070
0000
0000
FE00
FE00
FE00
DFF0
DFF0
9FF0
FE00
FE00
ENDCHAR
STARTCHAR U+00D3
ENCODING 211
SWIDTH 426 0
DWIDTH 16 0
BBX 16 36 2 -6
BITMAP
00E0
00F8
00FC
0000
00FE
00FF
00FF
007A
0038
0038
0038
0038
0000
007E
00FE
00FF
00C7
007E
007E
007F
07FF
0781
0781
0F00
0F00
0E00
0000
0000
07C0
07C0
0780
0780
0780
0780
0780
07C0
ENDCHAR
STARTCHAR U+00D4
ENCODING 212
SWIDTH 426 0
DWIDTH 16 0
BBX 16 36 2 -6
BITMAP
0000
0000
0000
0000
0000
0000
0000
0000
0000
0000
0000
0000
0000
0000
0000
0000
0000
0000
0000
0000
E007
E007
F007
F00F
F00F
700E
0000
0000
4003
0003
0003
0003
0003
0003
0003
0003
ENDCHAR
STARTCHAR U+00D5
ENCODING 213
SWIDTH 426 0
DWIDTH 16 0
BBX 16 36 2 -6
BITMAP
0000
0000
0000
0000
3800
3800
3800
3800
3800
3800
7A00
FF00
0000
FF00
FF00
8F00
0000
7E00
7E00
7F00
FFE0
81E0
81F0
00F0
00F0
0070
0000
0000
C000
C000
C000
FF80
FF80
FF80
C000
C000
ENDCHAR
STARTCHAR U+00D6
ENCODING 214
SWIDTH 426 0
DWIDTH 16 0
BBX 16 36 2 -6
BITMAP
0000
0000
0000
0000
000F
0000
000F
000F
000E
001E
007E
00FC
0000
00EF
00EF
00EF
0000
007E
007E
00FE
07FF
0781
0F81
0F00
0F00
0E00
0000
0000
03C0
03C0
03C0
03FF
03FF
03FF
03C0
03C0
ENDCHAR
STARTCHAR U+00D7
ENCODING 215
SWIDTH 426 0
DWIDTH 16 0
BBX 16 36 2 -6
BITMAP
0000
0000
0000
0000
0000
0000
0000
0000
0000
0000
0000
0000
0000
0000
0000
0000
0000
0000
0000
0000
E000
E000
E000
F000
F000
7000
0000
0000
0000
0000
0000
8000
8000
8000
0000
0000
ENDCHAR
STARTCHAR U+00D8
ENCODING 216
SWIDTH 426 0
DWIDTH 16 0
BBX 16 36 2 -6
BITMAP
0000
0000
0000
0000
0079
00FF
01FF
03DF
039E
0318
0200
0000
00FF
00FF
01F7
01E7
01E7
03C3
03FF
03FF
0000
0066
007E
003C
0018
007E
007E
007E
03FF
0781
0781
0F81
0F00
0F00
0000
0000
ENDCHAR
STARTCHAR U+00D9
ENCODING 217
SWIDTH 426 0
DWIDTH 16 0
BBX 16 36 2 -6
BITMAP
0000
0000
0000
0000
E000
C000
8000
0000
0000
0000
0000
0000
0000
0000
8001
8001
8001
C003
C003
C003
0000
0000
0000
0000
0000
0000
0000
0000
E00F
E01F
E01E
F03C
F03C
F038
0000
0000
ENDCHAR
STARTCHAR U+00DA
ENCODING 218
SWIDTH 426 0
DWIDTH 16 0
BBX 16 36 2 -6
BITMAP
0000
0000
0000
0000
0380
0000
0000
0000
0000
0000
0000
0000
FF00
FF00
F780
E780
E780
C3C0
FFC0
FFC0
0000
0000
0000
0000
0000
7FF8
7FF8
FE00
FE00
FE00
1FF8
1FFC
1FFC
0FF8
0000
0000
ENDCHAR
STARTCHAR U+00DB
ENCODING 219
SWIDTH 426 0
DWIDTH 16 0
BBX 16 36 2 -6
BITMAP
0018
0038
003C
007E
0038
0038
0038
0038
0038
0038
0038
0000
00FF
00FF
01F7
01E7
01E7
03C3
03FF
03FF
0000
0000
0000
001F
007F
01FF
03FF
03E0
03C0
03F9
01FF
00FF
007F
003F
001F
0000
ENDCHAR
STARTCHAR U+00DC
ENCODING 220
SWIDTH 426 0
DWIDTH 16 0
BBX 16 36 2 -6
BITMAP
0000
0000
0000
0000
0000
0000
0000
0000
0000
0000
0000
0000
0000
0000
8001
8001
8001
C003
C003
C003
0000
0000
0000
0000
C000
E003
F003
E003
6003
F003
F003
E003
8003
0003
0000
0000
ENDCHAR
STARTCHAR U+00DD
ENCODING 221
SWIDTH 426 0
DWIDTH 16 0
BBX 16 36 2 -6
BITMAP
3800
3800
3800
3800
FF00
FE00
7E00
3C00
3C00
1800
1000
0000
FF00
FF00
F780
E780
E780
C3C0
FFC0
FFC0
0000
7C00
3E00
0E00
0000
FFC0
FFC0
C000
C000
C000
FFC0
FFE0
FFE0
FFC0
0000
0000
ENDCHAR
STARTCHAR U+00DE
ENCODING 222
SWIDTH 426 0
DWIDTH 16 0
BBX 16 36 2 -6
BITMAP
0000
000E
000F
000F
00F0
01E0
03E0
03E0
01FF
00FF
007F
0000
00FF
00FF
01EF
01E7
01E7
03C3
03FF
07FF
0000
003E
007C
0070
0000
03FF
03FF
03FF
03C0
03C0
03FF
03FF
03FF
03FF
0000
0000
ENDCHAR
STARTCHAR U+00DF
ENCODING 223
SWIDTH 426 0
DWIDTH 16 0
BBX 16 36 2 -6
BITMAP
0000
0000
0000
0000
0000
0000
E000
E000
E000
E000
C000
0000
0000
0000
8000
8000
8000
C000
C000
C000
0000
0000
0000
0000
0000
C000
C000
C000
0000
0000
C000
E000
E000
C000
0000
0000
ENDCHAR
STARTCHAR U+00E0
ENCODING 224
SWIDTH 426 0
DWIDTH 16 0
BBX 16 36 2 -6
BITMAP
0000
007E
00FF
00E7
00C2
03FF
03FF
03FF
03C0
03C0
03FF
03FF
03FF
03FF
0000
0000
0000
00FE
00FE
00FE
0000
003C
003C
003C
003C
003C
003C
003C
003C
0038
0000
0000
07C3
0F81
0F00
0F00
ENDCHAR
STARTCHAR U+00E1
ENCODING 225
SWIDTH 426 0
DWIDTH 16 0
BBX 16 36 2 -6
BITMAP
0000
0000
0000
0000
0000
C003
C003
C003
0003
0003
C003
E003
E003
C003
0000
0000
0000
0000
0000
0000
0007
0007
0007
0007
0007
0007
0007
0007
0007
0007
0000
0000
E007
F00F
F00F
F00F
ENDCHAR
STARTCHAR U+00E2
ENCODING 226
SWIDTH 426 0
DWIDTH 16 0
BBX 16 36 2 -6
BITMAP
0000
EF00
EF00
EF00
0000
FFC0
FFC0
FFC0
C000
C000
FFC0
FFE0
FFE0
FFC0
0000
0000
0000
0000
0000
0000
FE00
FF80
FFC0
87E0
81E0
83E0
FFC0
FF80
FF00
FC00
0000
0000
C3E0
81F0
00F0
00F0
ENDCHAR
STARTCHAR U+00E3
ENCODING 227
SWIDTH 426 0
DWIDTH 16 0
BBX 16 36 2 -6
BITMAP
0000
007C
003E
000E
0004
003C
003C
003C
003C
003C
003C
003C
003C
0038
0000
0000
0000
00FF
00FF
009E
0000
0781
07C1
07C1
079F
078F
078F
0787
0787
0703
0000
0000
07C3
0F81
0F00
0F00
ENDCHAR
STARTCHAR U+00E4
ENCODING 228
SWIDTH 426 0
DWIDTH 16 0
BBX 16 36 2 -6
BITMAP
0000
0000
0000
0000
0000
0000
0000
0000
0000
0000
0000
0000
0000
0000
0000
0000
0000
0000
0000
0000
0000
E001
E003
E007
E00F
E007
E007
E003
E001
E000
0000
0000
E007
F003
F001
F000
ENDCHAR
STARTCHAR U+00E5
ENCODING 229
SWIDTH 426 0
DWIDTH 16 0
BBX 16 36 2 -6
BITMAP
0000
3E00
7C00
7000
0000
3C00
3C00
3C00
3C00
3C00
3C00
3C00
3C00
3800
0000
0000
0000
7E00
3F00
0E00
7E00
FF80
FFC0
FFE0
81F0
81E0
C3E0
FFC0
FF80
FF00
0000
0000
C3E0
E7C0
FF80
FF00
ENDCHAR
STARTCHAR U+00E6
ENCODING 230
SWIDTH 426 0
DWIDTH 16 0
BBX 16 36 2 -6
BITMAP
0000
007E
00FF
00EF
00C2
003C
003C
003C
003C
003C
003C
003C
003C
0038
0000
0000
0000
003E
007C
0070
007E
01FF
03FF
07FF
0F81
0781
07C3
03FF
01FF
00FF
0000
0000
0F83
0F03
0F07
0F0E
ENDCHAR
STARTCHAR U+00E7
ENCODING 231
SWIDTH 426 0
DWIDTH 16 0
BBX 16 36 2 -6
BITMAP
0000
0000
0000
0000
0000
0000
0000
0000
0000
0000
0000
0000
0000
0000
0000
0000
0000
0000
0000
0000
0000
8000
C000
E000
F000
E000
E000
C000
8000
0000
0000
0000
F000
F000
F000
F000
ENDCHAR
STARTCHAR U+00E8
ENCODING 232
SWIDTH 426 0
DWIDTH 16 0
BBX 16 36 2 -6
BITMAP
03C0
03C0
03C0
03FF
03FF
03FF
03C0
03C0
0000
0000
0000
0000
0000
0000
0000
0000
003C
003C
003C
003C
003C
003C
003C
003C
0000
007E
00FF
00E7
007E
01FF
03FF
07FF
0F81
0781
07C3
03FF
ENDCHAR
STARTCHAR U+00E9
ENCODING 233
SWIDTH 426 0
DWIDTH 16 0
BBX 16 36 2 -6
BITMAP
0003
0003
0003
8003
8003
8003
0003
0003
0000
0000
0000
0000
0000
0000
0000
0000
0007
0007
0007
0007
001F
001F
0007
0007
0000
0000
0000
0000
0000
8001
C003
E007
F00F
E007
E007
C003
ENDCHAR
STARTCHAR U+00EA
ENCODING 234
SWIDTH 426 0
DWIDTH 16 0
BBX 16 36 2 -6
BITMAP
C000
C000
C000
FF80
FF80
FF80
C000
C000
0000
0000
0000
0000
0000
0000
0000
0000
83E0
81E0
81F0
80F0
F8F0
F8F0
80F0
81F0
0000
FF80
FF80
8F00
7E00
FF80
FFC0
FFE0
81F0
81E0
C3E0
FFC0
ENDCHAR
STARTCHAR U+00EB
ENCODING 235
SWIDTH 426 0
DWIDTH 16 0
BBX 16 36 2 -6
BITMAP
003C
003C
003C
003C
003C
003C
003C
003C
0000
0000
0000
0000
0000
0000
0000
0000
07E1
07E1
07F1
07F9
07F9
07FD
07BF
079F
0000
00EF
00EF
00EF
007E
01FF
03FF
07FF
0F01
0781
07C7
03FF
ENDCHAR
STARTCHAR U+00EC
ENCODING 236
SWIDTH 426 0
DWIDTH 16 0
BBX 16 36 2 -6
BITMAP
0000
0000
0000
0000
0000
0000
0000
0000
0000
0000
0000
0000
0000
0000
0000
0000
E007
E00F
E00F
E00F
E00F
E00F
E00F
E00F
0000
0000
0000
0000
0000
8000
C003
E007
F003
E007
E007
C003
ENDCHAR
STARTCHAR U+00ED
ENCODING 237
SWIDTH 426 0
DWIDTH 16 0
BBX 16 36 2 -6
BITMAP
3C00
3C00
3C00
3C00
3C00
3C00
3C00
3C00
0000
0000
0000
0000
0000
0000
0000
0000
C3E0
81F0
00F0
00F0
00F0
00F0
00F0
00F0
0000
0000
0000
0000
0000
0000
00E0
81F0
E7C0
C3E0
81F0
00E0
ENDCHAR
STARTCHAR U+00EE
ENCODING 238
SWIDTH 426 0
DWIDTH 16 0
BBX 16 36 2 -6
BITMAP
003C
003C
003C
003C
003C
003C
003C
003C
0000
0000
0000
0000
0000
0000
0000
0000
07C3
0F81
0F00
0F00
0F00
0F00
0F00
0F00
0000
0000
0000
007E
01FF
03FF
07FF
07C3
0FE1
07C1
07E7
07FF
ENDCHAR
STARTCHAR U+00EF
ENCODING 239
SWIDTH 426 0
DWIDTH 16 0
BBX 16 36 2 -6
BITMAP
0000
0000
0000
0000
0000
0000
0000
0000
0000
0000
0000
0000
0000
0000
0000
0000
E000
F000
F000
F000
F000
F000
F000
F000
0000
0000
0000
0000
B000
F000
F000
E000
F000
E000
E000
C000
ENDCHAR
STARTCHAR U+00F0
ENCODING 240
SWIDTH 426 0
DWIDTH 16 0
BBX 16 36 2 -6
BITMAP
0F00
0F00
0F00
0F00
0000
007C
003E
001E
0004
0781
0781
0781
0781
0783
07C7
03FF
01FF
00FE
0000
0000
03FF
03FF
03C3
03C1
03C1
03C1
03C3
03FF
0000
0000
0000
0060
00FF
00FF
009F
000C
ENDCHAR
STARTCHAR U+00F1
ENCODING 241
SWIDTH 426 0
DWIDTH 16 0
BBX 16 36 2 -6
BITMAP
F00F
F00F
F00F
F00F
0000
0000
0000
0000
0000
E007
E007
E007
E007
E007
C007
C003
8001
0000
0000
0000
C003
C003
E003
E003
E003
E003
E003
C003
0000
0000
0000
0000
0000
0000
0000
0000
ENDCHAR
STARTCHAR U+00F2
ENCODING 242
SWIDTH 426 0
DWIDTH 16 0
BBX 16 36 2 -6
BITMAP
00F0
00F0
00F0
00F0
0000
3C00
7C00
7800
2000
81E0
81E0
81E0
81E0
83E0
C7C0
FFC0
FF80
FE00
0000
0000
C380
C780
FF80
FF00
FF80
FFC0
C3C0
C3C0
0000
0000
0000
EE00
EE00
EE00
EE00
0000
ENDCHAR
STARTCHAR U+00F3
ENCODING 243
SWIDTH 426 0
DWIDTH 16 0
BBX 16 36 2 -6
BITMAP
0F00
0F00
0F00
0F00
0000
007C
00FE
01EF
00C6
0781
0781
0781
0781
0783
07C7
03FF
01FF
00FE
0000
0000
0000
00FE
03FF
03FF
0187
011F
00FF
01FF
0000
0000
0000
0038
007C
006E
007C
003C
ENDCHAR
STARTCHAR U+00F4
ENCODING 244
SWIDTH 426 0
DWIDTH 16 0
BBX 16 36 2 -6
BITMAP
F000
F000
F000
F001
0000
0000
0000
0000
0000
E007
E007
E007
E007
E007
C007
C003
8001
0000
0000
0000
0000
0000
0003
8003
8001
8001
8000
8001
0000
0000
0000
0000
0000
0000
0000
0000
ENDCHAR
STARTCHAR U+00F5
ENCODING 245
SWIDTH 426 0
DWIDTH 16 0
BBX 16 36 2 -6
BITMAP
7E00
7E00
FF00
FF80
0000
EF00
EF00
EF00
0000
81E0
81E0
81E0
81E0
83E0
C7C0
FFC0
FF80
FE00
0000
0000
0000
FE00
FF00
FF80
8780
1F80
FF80
FF80
0000
0000
0000
0000
0000
0000
0000
0000
ENDCHAR
STARTCHAR U+00F6
ENCODING 246
SWIDTH 426 0
DWIDTH 16 0
BBX 16 36 2 -6
BITMAP
0F1C
0F3C
0F78
0FF0
0000
003E
007C
0070
0020
0F81
0781
07C3
003C
003C
003C
003C
003C
003C
0000
0000
0000
00FE
03FF
03FF
0187
010F
00FF
01FF
0000
0000
0000
0000
0000
0000
0000
0000
ENDCHAR
STARTCHAR U+00F7
ENCODING 247
SWIDTH 426 0
DWIDTH 16 0
BBX 16 36 2 -6
BITMAP
F000
F000
F000
F000
0000
0000
0000
0000
0000
E000
E000
C000
0000
0000
0000
0000
0000
0000
0000
0000
0000
0000
0000
8000
8000
8000
8000
8000
0000
0000
0000
0000
0000
0000
0000
0000
ENDCHAR
STARTCHAR U+00F8
ENCODING 248
SWIDTH 426 0
DWIDTH 16 0
BBX 16 36 2 -6
BITMAP
01FF
00FF
0000
0000
0781
0781
0781
0781
0781
0781
0781
0781
0000
0000
0000
0000
03C0
03C0
03FE
03FF
03FF
03FF
03FE
03C0
03C0
0380
0000
0000
0000
00FE
03FF
03FF
0187
001F
00FF
01FF
ENDCHAR
STARTCHAR U+00F9
ENCODING 249
SWIDTH 426 0
DWIDTH 16 0
BBX 16 36 2 -6
BITMAP
8001
0000
0000
0000
E007
E007
E007
E007
E007
E007
E007
E007
0000
0000
0000
0000
0000
0001
0003
8003
C003
8003
0003
0003
0003
0001
0000
0000
0000
0000
0003
8003
8001
8000
8000
8001
ENDCHAR
STARTCHAR U+00FA
ENCODING 250
SWIDTH 426 0
DWIDTH 16 0
BBX 16 36 2 -6
BITMAP
FF80
FF00
0000
0000
81E0
81E0
81E0
81E0
81E0
81E0
81E0
81E0
0000
0000
0000
7C00
FF00
FF80
FF80
C780
C1C0
F3C0
FFC0
FF80
FF80
9E00
0000
0000
0000
FE00
FF00
FF80
8780
1F80
FF80
FF80
ENDCHAR
STARTCHAR U+00FB
ENCODING 251
SWIDTH 426 0
DWIDTH 16 0
BBX 16 36 2 -6
BITMAP
01FF
00FF
0000
0000
0781
0781
0781
0781
0781
0781
0781
0781
0000
0000
0000
0030
0078
007C
003C
000C
03F7
03C7
03CF
03FF
03FF
01FB
0000
0000
0000
00FE
03FF
03FF
0187
001F
00FF
01FF
ENDCHAR
STARTCHAR U+00FC
ENCODING 252
SWIDTH 426 0
DWIDTH 16 0
BBX 16 36 2 -6
BITMAP
8000
0000
0000
0000
E007
E007
E007
E007
E007
E007
E007
E007
0000
0000
0000
0000
0000
0000
0000
0000
8003
8003
8003
E003
C003
C001
0000
0000
0000
000F
003F
803F
8018
8011
800F
801F
ENDCHAR
STARTCHAR U+00FD
ENCODING 253
SWIDTH 426 0
DWIDTH 16 0
BBX 16 36 2 -6
BITMAP
0040
0000
0000
0000
81E0
81E0
81E0
81E0
81E0
81E0
81E0
81E0
0000
0000
0000
1800
3C00
7C00
7800
6000
F780
C780
CF80
FFE0
FFC0
FBC0
0000
0000
0000
EFE0
FFF0
FFF0
7C78
F878
FFF8
FFF8
ENDCHAR
STARTCHAR U+00FE
ENCODING 254
SWIDTH 426 0
DWIDTH 16 0
BBX 16 36 2 -6
BITMAP
0FFF
0EFF
0400
0000
03C3
01E7
01EF
00FF
00FE
007E
007C
003C
0000
0000
0000
0038
007C
00FE
01FF
00C6
03F7
03C7
03C7
03FF
03FF
01FB
0000
0000
007F
00FF
01FF
03E1
03C0
03C0
03C0
03C0
ENDCHAR
STARTCHAR U+00FF
ENCODING 255
SWIDTH 426 0
DWIDTH 16 0
BBX 16 36 2 -6
BITMAP
8000
0000
0000
0000
C000
8000
0000
0000
0000
0000
0000
0000
0000
0000
0000
0000
0000
0000
0000
0000
8000
8000
8000
E000
C000
C000
0000
0000
0000
8000
8000
8000
0000
0000
0000
0000
ENDCHAR
ENDFONT
